<svg width="22" height="21" viewBox="0 0 22 21" fill="none" xmlns="http://www.w3.org/2000/svg">
<path d="M14.7639 14.1073L14.436 13.8481C14.3478 13.7788 14.2767 13.6909 14.2277 13.591C14.1788 13.491 14.1534 13.3815 14.1533 13.2706V10.2793C14.1529 8.99374 13.6984 7.74819 12.8675 6.75507C12.0365 5.76194 10.8806 5.08275 9.59674 4.83336C9.53414 4.59487 9.39262 4.38358 9.19443 4.23272C8.99623 4.08187 8.75261 4 8.50188 4C8.25115 4 8.00754 4.08187 7.80934 4.23272C7.61115 4.38358 7.46963 4.59487 7.40703 4.83336C6.12252 5.082 4.96568 5.76086 4.13399 6.75406C3.3023 7.74726 2.84731 8.99322 2.8467 10.2793V13.2706C2.84663 13.3815 2.82119 13.491 2.77227 13.591C2.72334 13.6909 2.65218 13.7788 2.56403 13.8481L2.23614 14.1073C1.84014 14.4183 1.52014 14.8125 1.29969 15.261C1.07924 15.7095 0.963936 16.2008 0.962265 16.6988V17.3134C0.962265 17.7061 1.1211 18.0828 1.40382 18.3605C1.68654 18.6382 2.06999 18.7942 2.46981 18.7942H5.5829C5.7528 19.4264 6.1309 19.9856 6.65823 20.3846C7.18556 20.7836 7.83248 21 8.49812 21C9.16375 21 9.81067 20.7836 10.338 20.3846C10.8653 19.9856 11.2434 19.4264 11.4133 18.7942H14.5302C14.93 18.7942 15.3135 18.6382 15.5962 18.3605C15.8789 18.0828 16.0377 17.7061 16.0377 17.3134V16.7062C16.0372 16.207 15.9224 15.7142 15.7019 15.2643C15.4814 14.8145 15.1609 14.4191 14.7639 14.1073ZM8.5 19.5347C8.23691 19.5331 7.97882 19.464 7.75138 19.3341C7.52393 19.2042 7.33505 19.0181 7.20351 18.7942H9.80026C9.6684 19.0186 9.47892 19.2051 9.25076 19.335C9.0226 19.4649 8.76373 19.5338 8.5 19.5347ZM14.5302 17.3134H2.46981V16.7062C2.47021 16.4288 2.5341 16.155 2.65674 15.9051C2.77939 15.6551 2.95765 15.4355 3.17836 15.2624L3.50625 15.0032C3.77068 14.7953 3.98417 14.5316 4.13095 14.2317C4.27772 13.9318 4.35403 13.6034 4.35425 13.2706V10.2793C4.35425 9.19919 4.79103 8.16337 5.56851 7.39964C6.34599 6.63592 7.40048 6.20687 8.5 6.20687C9.59952 6.20687 10.654 6.63592 11.4315 7.39964C12.209 8.16337 12.6458 9.19919 12.6458 10.2793V13.2706C12.6454 13.604 12.7214 13.9332 12.8682 14.2337C13.015 14.5343 13.2288 14.7986 13.4937 15.0069L13.8216 15.2661C14.0419 15.4388 14.2198 15.6579 14.3424 15.9071C14.4651 16.1563 14.5292 16.4294 14.5302 16.7062V17.3134Z" fill="black"/>
<circle cx="18.5" cy="3.5" r="3.5" fill="#9747FF"/>
</svg>
