<svg width="17" height="17" viewBox="0 0 17 17" fill="none" xmlns="http://www.w3.org/2000/svg">
<path d="M14.7639 10.1073L14.436 9.84815C14.3478 9.77883 14.2767 9.69094 14.2277 9.59097C14.1788 9.49101 14.1534 9.38153 14.1533 9.27061V6.27926C14.1529 4.99374 13.6984 3.74819 12.8675 2.75507C12.0365 1.76194 10.8806 1.08275 9.59674 0.833365C9.53414 0.594871 9.39262 0.383581 9.19443 0.232723C8.99623 0.0818661 8.75261 0 8.50188 0C8.25115 0 8.00754 0.0818661 7.80934 0.232723C7.61115 0.383581 7.46963 0.594871 7.40703 0.833365C6.12252 1.082 4.96568 1.76086 4.13399 2.75406C3.3023 3.74726 2.84731 4.99322 2.8467 6.27926V9.27061C2.84663 9.38153 2.82119 9.49101 2.77227 9.59097C2.72334 9.69094 2.65218 9.77883 2.56403 9.84815L2.23614 10.1073C1.84014 10.4183 1.52014 10.8125 1.29969 11.261C1.07924 11.7095 0.963936 12.2008 0.962265 12.6988V13.3134C0.962265 13.7061 1.1211 14.0828 1.40382 14.3605C1.68654 14.6382 2.06999 14.7942 2.46981 14.7942H5.5829C5.7528 15.4264 6.1309 15.9856 6.65823 16.3846C7.18556 16.7836 7.83248 17 8.49812 17C9.16375 17 9.81067 16.7836 10.338 16.3846C10.8653 15.9856 11.2434 15.4264 11.4133 14.7942H14.5302C14.93 14.7942 15.3135 14.6382 15.5962 14.3605C15.8789 14.0828 16.0377 13.7061 16.0377 13.3134V12.7062C16.0372 12.207 15.9224 11.7142 15.7019 11.2643C15.4814 10.8145 15.1609 10.4191 14.7639 10.1073ZM8.5 15.5347C8.23691 15.5331 7.97882 15.464 7.75138 15.3341C7.52393 15.2042 7.33505 15.0181 7.20351 14.7942H9.80026C9.6684 15.0186 9.47892 15.2051 9.25076 15.335C9.0226 15.4649 8.76373 15.5338 8.5 15.5347ZM14.5302 13.3134H2.46981V12.7062C2.47021 12.4288 2.5341 12.155 2.65674 11.9051C2.77939 11.6551 2.95765 11.4355 3.17836 11.2624L3.50625 11.0032C3.77068 10.7953 3.98417 10.5316 4.13095 10.2317C4.27772 9.93181 4.35403 9.60336 4.35425 9.27061V6.27926C4.35425 5.19919 4.79103 4.16337 5.56851 3.39964C6.34599 2.63592 7.40048 2.20687 8.5 2.20687C9.59952 2.20687 10.654 2.63592 11.4315 3.39964C12.209 4.16337 12.6458 5.19919 12.6458 6.27926V9.27061C12.6454 9.60398 12.7214 9.93316 12.8682 10.2337C13.015 10.5343 13.2288 10.7986 13.4937 11.0069L13.8216 11.2661C14.0419 11.4388 14.2198 11.6579 14.3424 11.9071C14.4651 12.1563 14.5292 12.4294 14.5302 12.7062V13.3134Z" fill="black"/>
</svg>
