<svg xmlns="http://www.w3.org/2000/svg" xmlns:xlink="http://www.w3.org/1999/xlink" viewBox="0 0 136.74 60"><defs><style>.cls-1{fill:#ec5f7b;}.cls-2{fill:#f5cf57;}.cls-3{fill:#7468e5;}.cls-4{fill:#96cb76;}.cls-5{fill:#4d4d4d;}.cls-6{fill:url(#Degradado_sin_nombre_2);}</style><linearGradient id="Degradado_sin_nombre_2" x1="91.24" y1="17.12" x2="131.21" y2="17.12" gradientUnits="userSpaceOnUse"><stop offset="0" stop-color="#ec5f7b"/><stop offset="1" stop-color="#7468e5"/></linearGradient></defs><title>Logo - Civiconecta</title><g id="Capa_2" data-name="Capa 2"><g id="Diseño"><path class="cls-1" d="M12.18,30a12.3,12.3,0,0,1-5.92-1.34,9.4,9.4,0,0,1-3.81-3.74A11.38,11.38,0,0,1,1.11,19.2a12.19,12.19,0,0,1,.75-4.4,9.24,9.24,0,0,1,2.19-3.36A10.24,10.24,0,0,1,7.54,9.26a13.16,13.16,0,0,1,4.64-.78A12.6,12.6,0,0,1,15,8.81a10.08,10.08,0,0,1,2.57.91,2.47,2.47,0,0,1,1.17,1.13,2.6,2.6,0,0,1,.2,1.42,2.72,2.72,0,0,1-.51,1.26,2,2,0,0,1-1.06.75,1.85,1.85,0,0,1-1.44-.2,6.51,6.51,0,0,0-1.74-.63,8.48,8.48,0,0,0-1.83-.2,5.93,5.93,0,0,0-3,.7,4.31,4.31,0,0,0-1.84,2,7.48,7.48,0,0,0-.62,3.25,7.57,7.57,0,0,0,.62,3.27,4.41,4.41,0,0,0,1.84,2,6,6,0,0,0,3,.69A8.4,8.4,0,0,0,14,25a7.31,7.31,0,0,0,1.72-.59,2.47,2.47,0,0,1,1.56-.22,1.91,1.91,0,0,1,1.13.71A2.65,2.65,0,0,1,19,26.13a2.33,2.33,0,0,1-.2,1.37,2.3,2.3,0,0,1-1.07,1.09,9.42,9.42,0,0,1-2.55,1A12.86,12.86,0,0,1,12.18,30Z"/><path class="cls-2" d="M31.84,29.89a2.69,2.69,0,0,1-2-.74,2.86,2.86,0,0,1-.71-2.06V11.34a2.86,2.86,0,0,1,.71-2.06,2.69,2.69,0,0,1,2-.74,2.61,2.61,0,0,1,2,.74,2.86,2.86,0,0,1,.71,2.06V27.09a2.9,2.9,0,0,1-.69,2.06A2.61,2.61,0,0,1,31.84,29.89Z"/><path class="cls-3" d="M54.51,29.89a3,3,0,0,1-1.77-.49,3.55,3.55,0,0,1-1.17-1.51l-7.13-15.7a2.88,2.88,0,0,1-.31-1.88A2.19,2.19,0,0,1,45,9a2.7,2.7,0,0,1,1.62-.47,2.74,2.74,0,0,1,1.83.55,4.16,4.16,0,0,1,1,1.57l6,13.9H53.8l6-13.93a4.28,4.28,0,0,1,1.06-1.56,2.64,2.64,0,0,1,1.76-.53A2.32,2.32,0,0,1,64.12,9a2.15,2.15,0,0,1,.77,1.28,3.28,3.28,0,0,1-.31,1.88l-7.13,15.7a3.67,3.67,0,0,1-1.14,1.51A3,3,0,0,1,54.51,29.89Z"/><path class="cls-4" d="M77.24,29.89a2.67,2.67,0,0,1-2-.74,2.82,2.82,0,0,1-.71-2.06V11.34a2.82,2.82,0,0,1,.71-2.06,2.67,2.67,0,0,1,2-.74,2.61,2.61,0,0,1,2,.74,2.86,2.86,0,0,1,.71,2.06V27.09a2.9,2.9,0,0,1-.7,2.06A2.59,2.59,0,0,1,77.24,29.89Z"/><path class="cls-5" d="M9.89,60a10.23,10.23,0,0,1-5.3-1.3A8.63,8.63,0,0,1,1.19,55,12.67,12.67,0,0,1,0,49.34a13.46,13.46,0,0,1,.68-4.4,9.65,9.65,0,0,1,1.94-3.35,8.14,8.14,0,0,1,3.11-2.14,11.1,11.1,0,0,1,4.16-.73,11.33,11.33,0,0,1,3.4.5,8.53,8.53,0,0,1,2.81,1.41,1.51,1.51,0,0,1,.62.73,1.35,1.35,0,0,1,.05.79,1.24,1.24,0,0,1-.39.61,1,1,0,0,1-.69.27,1.45,1.45,0,0,1-.88-.31,6.89,6.89,0,0,0-2.25-1.16A8.9,8.9,0,0,0,10,41.19a7.25,7.25,0,0,0-3.84,1,6,6,0,0,0-2.39,2.76,10.86,10.86,0,0,0-.81,4.43,10.92,10.92,0,0,0,.81,4.43,6,6,0,0,0,2.39,2.8,7.25,7.25,0,0,0,3.84,1,8.88,8.88,0,0,0,2.64-.39A7.41,7.41,0,0,0,14.9,56a1.34,1.34,0,0,1,.86-.3,1.21,1.21,0,0,1,.67.25,1.24,1.24,0,0,1,.37.59,1.37,1.37,0,0,1,0,.75,1.3,1.3,0,0,1-.53.68,7.85,7.85,0,0,1-2.87,1.54A11.52,11.52,0,0,1,9.89,60Z"/><path class="cls-5" d="M29.14,60a9.61,9.61,0,0,1-5.09-1.31A8.86,8.86,0,0,1,20.71,55a12.6,12.6,0,0,1-1.19-5.64,13.2,13.2,0,0,1,.68-4.4,9.76,9.76,0,0,1,1.92-3.35,8.2,8.2,0,0,1,3-2.14,10.3,10.3,0,0,1,4-.73A9.71,9.71,0,0,1,34.24,40a8.61,8.61,0,0,1,3.32,3.68,12.48,12.48,0,0,1,1.18,5.62,13.63,13.63,0,0,1-.67,4.42,10.24,10.24,0,0,1-1.93,3.39,8.21,8.21,0,0,1-3,2.14A10.27,10.27,0,0,1,29.14,60Zm0-2.41a6.54,6.54,0,0,0,3.63-1,6.2,6.2,0,0,0,2.31-2.82,11.09,11.09,0,0,0,.81-4.45,9.39,9.39,0,0,0-1.75-6.06,6.1,6.1,0,0,0-5-2.15,6.64,6.64,0,0,0-3.63,1,6,6,0,0,0-2.31,2.79,11.25,11.25,0,0,0-.8,4.46,9.38,9.38,0,0,0,1.77,6.07A6.06,6.06,0,0,0,29.14,57.59Z"/><path class="cls-5" d="M44.54,59.94a1.26,1.26,0,0,1-.93-.35,1.37,1.37,0,0,1-.33-1V40.16a1.45,1.45,0,0,1,.32-1,1.1,1.1,0,0,1,.85-.36,1.37,1.37,0,0,1,.77.18,2.54,2.54,0,0,1,.59.62L58.29,56.11h-.74v-16a1.38,1.38,0,0,1,.34-1,1.34,1.34,0,0,1,1-.34,1.26,1.26,0,0,1,.94.34,1.38,1.38,0,0,1,.33,1V58.62a1.46,1.46,0,0,1-.31,1,1.05,1.05,0,0,1-.81.35,1.41,1.41,0,0,1-.78-.19,2.51,2.51,0,0,1-.64-.63L45.13,42.57h.68v16a1.37,1.37,0,0,1-.33,1A1.22,1.22,0,0,1,44.54,59.94Z"/><path class="cls-5" d="M66.86,59.74a1.35,1.35,0,0,1-1.48-1.48V40.45a1.47,1.47,0,0,1,.39-1.09A1.49,1.49,0,0,1,66.86,39H77.69a1.25,1.25,0,0,1,.87.28,1,1,0,0,1,.31.81,1.1,1.1,0,0,1-.31.85,1.21,1.21,0,0,1-.87.3H68v6.86h9a1.21,1.21,0,0,1,.86.29,1.15,1.15,0,0,1,.29.83,1.1,1.1,0,0,1-.29.83,1.2,1.2,0,0,1-.86.28H68V57.5h9.66a1.25,1.25,0,0,1,.87.28,1,1,0,0,1,.31.84,1.07,1.07,0,0,1-.31.84,1.3,1.3,0,0,1-.87.28Z"/><path class="cls-5" d="M92,60a10.23,10.23,0,0,1-5.3-1.3A8.57,8.57,0,0,1,83.27,55a12.54,12.54,0,0,1-1.19-5.67,13.46,13.46,0,0,1,.67-4.4,9.67,9.67,0,0,1,2-3.35,8.18,8.18,0,0,1,3.1-2.14A11.19,11.19,0,0,1,92,38.72a11.33,11.33,0,0,1,3.4.5,8.53,8.53,0,0,1,2.81,1.41,1.57,1.57,0,0,1,.62.73,1.27,1.27,0,0,1,0,.79,1.22,1.22,0,0,1-.38.61,1.06,1.06,0,0,1-.69.27,1.43,1.43,0,0,1-.88-.31,6.84,6.84,0,0,0-2.26-1.16,8.79,8.79,0,0,0-2.6-.37,7.25,7.25,0,0,0-3.84,1,6,6,0,0,0-2.39,2.76A10.86,10.86,0,0,0,85,49.34a10.92,10.92,0,0,0,.81,4.43,6,6,0,0,0,2.39,2.8,7.25,7.25,0,0,0,3.84,1,8.76,8.76,0,0,0,2.63-.39A7.2,7.2,0,0,0,97,56a1.38,1.38,0,0,1,.87-.3,1.15,1.15,0,0,1,.66.25,1.17,1.17,0,0,1,.37.59,1.28,1.28,0,0,1,0,.75,1.36,1.36,0,0,1-.53.68,7.93,7.93,0,0,1-2.87,1.54A11.52,11.52,0,0,1,92,60Z"/><path class="cls-5" d="M109.16,59.94a1.35,1.35,0,0,1-1-.37,1.45,1.45,0,0,1-.35-1V41.31h-6.45a1.24,1.24,0,0,1-.88-.31,1.15,1.15,0,0,1-.33-.87,1.11,1.11,0,0,1,.33-.86,1.28,1.28,0,0,1,.88-.29H117a1.28,1.28,0,0,1,.9.29,1.13,1.13,0,0,1,.31.86,1.17,1.17,0,0,1-.31.87,1.24,1.24,0,0,1-.9.31h-6.44V58.53a1.49,1.49,0,0,1-.34,1A1.32,1.32,0,0,1,109.16,59.94Z"/><path class="cls-5" d="M118.32,59.94a1.38,1.38,0,0,1-.84-.23,1,1,0,0,1-.37-.65,1.57,1.57,0,0,1,.18-.91l8-18.2a2.1,2.1,0,0,1,.68-.9,1.63,1.63,0,0,1,.91-.28,1.55,1.55,0,0,1,.9.28,2.19,2.19,0,0,1,.69.9l8,18.2a1.7,1.7,0,0,1,.19.92.87.87,0,0,1-.34.65,1.31,1.31,0,0,1-.82.22,1.35,1.35,0,0,1-.94-.31,2.46,2.46,0,0,1-.62-.9l-2.09-4.88,1.26.7h-12.6l1.27-.7-2.09,4.88a2.33,2.33,0,0,1-.59.93A1.25,1.25,0,0,1,118.32,59.94Zm8.53-17.87-4.59,10.86-.7-.61h10.65l-.67.61-4.63-10.86Z"/><path class="cls-6" d="M127.89,3a10,10,0,0,0-7.09-3h0a10,10,0,0,0-7.14,3L111,5.6,108.46,3A10.06,10.06,0,0,0,94.19,3a10.26,10.26,0,0,0,0,14.39l4.39,4.46,1.79,1.82L110.6,34l0,0a.61.61,0,0,0,.43.17.64.64,0,0,0,.45-.19l4.75-4.79.1-.11.13-.13s.15-.16.4-.42l2.83-2.9,5.68-5.84,2.5-2.49A10.27,10.27,0,0,0,127.89,3ZM97.18,18.61l-2.09-2.12a8.94,8.94,0,0,1,0-12.61,8.71,8.71,0,0,1,12.24-.21h0a4.35,4.35,0,0,0-2.12.55,4.28,4.28,0,0,0-2,2.5v0h0a3.39,3.39,0,0,0-.78.17,5.3,5.3,0,0,0-2.89,2.77A5.12,5.12,0,0,0,99.19,14v0l0,0a5,5,0,0,0-2,4.6ZM110.4,32,108,29.59l-.89-1a1.94,1.94,0,0,1,.09-2.74.64.64,0,0,0-.87-.94,3.24,3.24,0,0,0-.95,1.72l0,.27-.5-.5-.17-.17h0l-2.63-2.68h0L99.53,21h0a5,5,0,0,1-1-2,3.75,3.75,0,0,1,2.7-4.57,2.8,2.8,0,0,1,.7-.09,2.88,2.88,0,0,1,1.61.49l0,0v0a2.72,2.72,0,0,0-.25,1.54A.64.64,0,0,0,104,17H104a.66.66,0,0,0,.42-.24.63.63,0,0,0,.13-.47A1.59,1.59,0,0,1,106,14.5a.64.64,0,0,0-.08-1.27h-.07a2.88,2.88,0,0,0-1.4.57l0,0,0,0a4.13,4.13,0,0,0-2.42-.78,4.54,4.54,0,0,0-1,.13,4.72,4.72,0,0,0-.53.18l0,0,0,0a4,4,0,0,1,.3-3.07,4.09,4.09,0,0,1,2.16-2.13,1.78,1.78,0,0,1,.61-.11,1.55,1.55,0,0,1,.67.14,2,2,0,0,1,1,1.67.63.63,0,0,0,.63.57h.06a.65.65,0,0,0,.58-.7A3.18,3.18,0,0,0,104.61,7l-.06,0-.06,0,0,0v0h0a3.12,3.12,0,0,1,1.13-1.41A3.09,3.09,0,0,1,110.4,8v7.62a1.95,1.95,0,0,1-2,1.94.64.64,0,0,0,0,1.28,3.15,3.15,0,0,0,1.87-.61l.08-.05Zm13.12-13a5.4,5.4,0,0,1-.81,1.81l-.07.07h0l-.26.25h0l-.51.52a2.22,2.22,0,0,0-.37.38l-3.43,3.51-.38.4a1.93,1.93,0,0,1-1.39.52,2,2,0,0,1-1.36-.62.64.64,0,1,0-.93.88,3.12,3.12,0,0,0,1.72.94l.26,0-.66.67h0l-.07.08c-.11.08-2.43,2.43-3.59,3.6V21.66a1.95,1.95,0,0,1,2-1.95.64.64,0,1,0,0-1.27,3.2,3.2,0,0,0-1.87.6l-.08.06V8a3.08,3.08,0,0,1,5.26-2.18,3.12,3.12,0,0,1,.68,1v0l0,0,0,0-.06,0a2.81,2.81,0,0,0-1.38,1.52l0,.05,0,0a2.83,2.83,0,0,0-1.17-.31h0a.63.63,0,0,0-.64.61.64.64,0,0,0,.61.67,1.58,1.58,0,0,1,1.51,1.63.6.6,0,0,0,.17.46.62.62,0,0,0,.44.21h0a.63.63,0,0,0,.63-.62,2.74,2.74,0,0,0-.45-1.64v0a1.84,1.84,0,0,1,.9-1.36,1.83,1.83,0,0,1,1.72.17,4.34,4.34,0,0,1,1.72,1.93,4,4,0,0,1,.3,3.07l0,0,0,0a4.72,4.72,0,0,0-.53-.18,4.56,4.56,0,0,0-1-.13,4.11,4.11,0,0,0-2.91,1.19.63.63,0,0,0,0,.9.64.64,0,0,0,.9,0,2.87,2.87,0,0,1,2-.82,2.82,2.82,0,0,1,.71.09,3.72,3.72,0,0,1,2.3,1.73A3.67,3.67,0,0,1,123.52,19ZM127,16.47l-2.09,2.11a4.88,4.88,0,0,0-.25-2.21A5,5,0,0,0,122.89,14l0,0,0,0a5.2,5.2,0,0,0-.27-4.26,5.57,5.57,0,0,0-2.25-2.48,3.72,3.72,0,0,0-1.42-.47h0v0a4.35,4.35,0,0,0-4.14-3h-.05a8.74,8.74,0,0,1,6-2.42h.15A8.71,8.71,0,0,1,127,3.86a8.94,8.94,0,0,1,0,12.61Z"/></g></g></svg>