<svg id="Capa_1" data-name="Capa 1" xmlns="http://www.w3.org/2000/svg" viewBox="0 0 120 120"><defs><style>.cls-1{fill:#7468e2;}.cls-2{fill:#fff;}</style></defs><title>Mesa de trabajo 1 copia 43</title><circle class="cls-1" cx="60" cy="60" r="45"/><path class="cls-2" d="M75.64,69.39a3,3,0,0,1,0,4.17l-2.09,2.08a3,3,0,0,1-4.17,0L60,66.26l-9.38,9.38a3,3,0,0,1-4.17,0l-2.09-2.08a3,3,0,0,1,0-4.17L53.75,60l-9.39-9.39a2.94,2.94,0,0,1,0-4.16l2.09-2.09a3,3,0,0,1,4.17,0L60,53.75l9.38-9.38a3,3,0,0,1,4.17,0l2.09,2.09a2.94,2.94,0,0,1,0,4.16L66.25,60Z"/></svg>