<svg id="Capa_1" data-name="Capa 1" xmlns="http://www.w3.org/2000/svg" viewBox="0 0 120 120"><defs><style>.cls-1{fill:#7468e5;}</style></defs><title>Mesa de trabajo 1 copia 45</title><path class="cls-1" d="M98.75,60.82A38.75,38.75,0,1,1,60,22.07,38.75,38.75,0,0,1,98.75,60.82Zm-5,0A33.75,33.75,0,1,0,60,94.57,33.75,33.75,0,0,0,93.75,60.82ZM53.93,79.58a1.87,1.87,0,0,1-2.65,0L37.86,66a1.87,1.87,0,0,1,0-2.65l1.33-1.32a1.88,1.88,0,0,1,2.65,0L52.63,73,78.17,47.61a1.88,1.88,0,0,1,2.65,0L82.14,49a1.87,1.87,0,0,1,0,2.65Z"/></svg>