<svg id="Capa_1" data-name="Capa 1" xmlns="http://www.w3.org/2000/svg" viewBox="0 0 120 120"><defs><style>.cls-1{fill:#e95f7b;}.cls-2{fill:#fff;}</style></defs><title>Mesa de trabajo 1 copia 37</title><rect class="cls-1" x="5" y="5" width="110" height="110" rx="14"/><path class="cls-2" d="M37,39.15A7.07,7.07,0,0,1,44,32.07H61.72V46.22a3.53,3.53,0,0,0,3.53,3.53H79.4V65.18L68.93,75.64a7.1,7.1,0,0,0-1.85,3.29l-1.67,6.64a5.42,5.42,0,0,0,.15,3.07H44A7.07,7.07,0,0,1,37,81.57Zm28.28,7.07V32.07L79.4,46.22Zm6.18,31.83L85.71,63.87l7.84,7.84L79.28,86a3.67,3.67,0,0,1-1.65.93L71,88.58a1.82,1.82,0,0,1-1.68-.47,1.86,1.86,0,0,1-.46-1.78l1.65-6.55A4.58,4.58,0,0,1,71.43,78.05ZM99.3,59.71a4.41,4.41,0,0,1,0,6.25l-3.25,3.25-7.84-7.84,3.25-3.25a4.42,4.42,0,0,1,6.26,0Z"/></svg>