<?xml version="1.0" encoding="utf-8"?>
<!-- Generator: Adobe Illustrator 23.1.1, SVG Export Plug-In . SVG Version: 6.00 Build 0)  -->
<svg version="1.1" id="Capa_1" xmlns="http://www.w3.org/2000/svg" xmlns:xlink="http://www.w3.org/1999/xlink" x="0px" y="0px"
	 viewBox="0 0 120 120" style="enable-background:new 0 0 120 120;" xml:space="preserve">
<style type="text/css">
	.st0{fill:#E95F7B;}
</style>
<title>Mesa de trabajo 1 copia 31</title>
<path class="st0" d="M53.8,85.3c-1.5,1.5-3.8,1.5-5.3,0c0,0,0,0,0,0L45,81.7c-1.5-1.4-1.5-3.8,0-5.3c0,0,0,0,0,0l15-15.1L45,46.3
	c-1.5-1.5-1.5-3.8,0-5.3c0,0,0,0,0,0l3.5-3.6c1.5-1.5,3.8-1.5,5.3,0c0,0,0,0,0,0L75,58.7c1.5,1.4,1.5,3.8,0,5.3c0,0,0,0,0,0
	L53.8,85.3z"/>
</svg>
