<svg id="Capa_1" data-name="Capa 1" xmlns="http://www.w3.org/2000/svg" viewBox="0 0 120 120"><defs><style>.cls-1{fill:#7468e5;}</style></defs><title>Mesa de trabajo 1 copia 49</title><path class="cls-1" d="M98.75,60.82A38.75,38.75,0,1,1,60,22.07,38.74,38.74,0,0,1,98.75,60.82ZM60,27.07A33.75,33.75,0,1,0,93.75,60.82,33.75,33.75,0,0,0,60,27.07ZM57.8,65.4A1.88,1.88,0,0,1,57,63.88V39a1.88,1.88,0,0,1,1.88-1.88h2.18A1.88,1.88,0,0,1,63,39V61.8l11,8a1.87,1.87,0,0,1,.41,2.63l-1.28,1.76a1.89,1.89,0,0,1-2.63.41Z"/></svg>