<svg width="16" height="16" viewBox="0 0 22 16" fill="none" xmlns="http://www.w3.org/2000/svg">
<path d="M8.07049 10.178H5.63449V12.67H3.36649V10.178H0.930492V8.036H3.36649V5.53H5.63449V8.036H8.07049V10.178Z" fill="white"/>
<path fill-rule="evenodd" clip-rule="evenodd" d="M15.3132 0L9.76947 1.79531V5.6148H10.2903V1.96398L12.1425 2.56379C11.7523 3.15937 11.5253 3.87142 11.5253 4.63625C11.5253 6.7275 13.222 8.42417 15.3132 8.42417C17.4045 8.42417 19.1012 6.7275 19.1012 4.63625C19.1012 3.87142 18.8742 3.15937 18.484 2.56379L20.857 1.79531L15.3132 0ZM16.9271 9.73021C17.0178 9.70259 17.1125 9.68681 17.2072 9.68681C19.6575 9.68681 21.6383 11.6794 21.6264 14.1297C21.6225 15.1674 20.7702 16 19.7325 16H10.894C9.85628 16 9.004 15.1674 9.00005 14.1297C8.98821 11.6794 10.969 9.68681 13.4193 9.68681C13.514 9.68681 13.6087 9.70259 13.6994 9.73021C14.2084 9.89593 14.749 10.0025 15.3132 10.0025C15.8775 10.0025 16.4141 9.89593 16.9271 9.73021Z" fill="white"/>
</svg>

