<svg width="15" height="15" viewBox="0 0 15 15" fill="none" xmlns="http://www.w3.org/2000/svg">
<path d="M14.0956 13.9937C14.0956 14.4969 13.5967 15 13.0977 15L0.997922 15C0.374222 15 9.97661e-07 14.4969 1.04165e-06 13.9937L2.10831e-06 1.79245C2.1633e-06 1.16352 0.498963 0.786162 0.997923 0.786162L2.37006 0.786162C2.99376 0.786162 3.49272 1.28931 3.36798 1.91824L3.24324 9.21384L12.0998 0.283019C12.474 -0.0943396 13.2225 -0.0943395 13.5967 0.283019L14.7193 1.16352C15.0936 1.54088 15.0936 2.2956 14.7193 2.67296L5.86279 11.6038L13.0977 11.478C13.7214 11.478 14.2204 11.9811 14.2204 12.4843L14.2204 13.9937L14.0956 13.9937Z" fill="#A5A5A5"/>
</svg>
