<svg width="12" height="13" viewBox="0 0 12 13" fill="none" xmlns="http://www.w3.org/2000/svg">
<path d="M11.8036 6.26039C12.015 6.47182 12.0167 6.89292 11.8071 7.1026L6.72253 12.1871C6.46044 12.4492 6.09176 12.395 5.88033 12.1836L0.753151 7.05644C0.488864 6.79216 0.539963 6.42391 0.749635 6.21424L1.32623 5.63764C1.58832 5.37555 2.00942 5.37731 2.22129 5.69402L5.23461 8.81217L5.2034 1.33761C5.20208 1.02179 5.51659 0.707279 5.83242 0.708597L6.67418 0.606839C6.99001 0.608157 7.30715 0.925302 7.30847 1.24113L7.33968 8.71568L10.3271 5.62259C10.5892 5.3605 11.0103 5.36225 11.2217 5.57368L11.856 6.20797L11.8036 6.26039Z" fill="white"/>
</svg>
