<svg width="15" height="15" viewBox="0 0 15 15" fill="none" xmlns="http://www.w3.org/2000/svg">
<path d="M0.904366 1.00629C0.904366 0.503145 1.40333 0 1.90229 0H14.0021C14.6258 0 15 0.503145 15 1.00629V13.2075C15 13.8365 14.501 14.2138 14.0021 14.2138H12.6299C12.0062 14.2138 11.5073 13.7107 11.632 13.0818L11.7568 5.78616L2.90021 14.717C2.52599 15.0943 1.77755 15.0943 1.40333 14.717L0.280665 13.8365C-0.0935551 13.4591 -0.0935551 12.7044 0.280665 12.327L9.13721 3.39623L1.90229 3.52201C1.27859 3.52201 0.779626 3.01887 0.779626 2.51572V1.00629H0.904366Z" fill="#96cb76"/>
</svg>
