<svg width="50" height="50" viewBox="0 0 50 50" fill="none" xmlns="http://www.w3.org/2000/svg">
<path d="M1.13165e-09 33.8542V36.9755C-7.81774e-06 37.1812 0.0405016 37.3848 0.119215 37.5749C0.197928 37.7649 0.313303 37.9376 0.458751 38.083C0.6042 38.2284 0.776872 38.3438 0.966909 38.4225C1.15694 38.5012 1.36062 38.5417 1.56631 38.5417H9.45791L6.55975 46.5045C5.46696 49.7615 10.1982 51.4833 11.454 48.2858L12.3467 45.8336H37.6536L38.546 48.2858C39.8023 51.4838 44.534 49.7606 43.4402 46.5045L40.5421 38.5418L34.9993 38.5417L36.516 42.7086H13.4838L15.0005 38.5417H48.4338C48.6395 38.5417 48.8432 38.5012 49.0332 38.4225C49.2232 38.3438 49.3959 38.2284 49.5413 38.083C49.6867 37.9375 49.8021 37.7649 49.8808 37.5748C49.9595 37.3848 50 37.1812 50 36.9755V33.8542H1.13165e-09Z" fill="white"/>
<path d="M23.9586 23.963C23.9586 23.5474 24.1237 23.1489 24.4176 22.855C24.7115 22.5612 25.1101 22.3961 25.5257 22.3961H41.1415C41.5571 22.3961 41.9557 22.5612 42.2496 22.855C42.5435 23.1489 42.7086 23.5474 42.7086 23.963V30.7292H46.875V1.56351C46.875 1.14885 46.7102 0.751174 46.417 0.457963C46.1238 0.164752 45.7261 1.89425e-05 45.3115 0H4.68851C4.27385 1.89425e-05 3.87617 0.164752 3.58296 0.457963C3.28975 0.751174 3.12502 1.14885 3.125 1.56351V30.7292H23.9586V23.963Z" fill="white"/>
<path d="M39.5833 25.5208H27.0833V30.7292H39.5833V25.5208Z" fill="white"/>
</svg>
