<svg id="Capa_1" data-name="Capa 1" xmlns="http://www.w3.org/2000/svg" viewBox="0 0 120 120"><defs><style>.cls-1{fill:#7468e2;}.cls-2{fill:#fff;}</style></defs><title>Mesa de trabajo 1 copia 69</title><rect class="cls-1" x="5" y="5" width="110" height="110" rx="14"/><path class="cls-2" d="M42.32,35.61v7.07H28.18V35.61a3.54,3.54,0,0,1,3.53-3.54h7.07A3.54,3.54,0,0,1,42.32,35.61ZM28.18,46.21H42.32V74.5H28.18Zm0,31.83H42.32v7.07a3.53,3.53,0,0,1-3.54,3.53H31.71a3.53,3.53,0,0,1-3.53-3.53Zm61.54,6.47L88,85a3.07,3.07,0,0,1-2.32-.48,30,30,0,0,0-7.51,2,3.08,3.08,0,0,1-1.78,1.57l-1.71.46a2.8,2.8,0,0,1-3.46-2L60,42.68H45.85V35.61a3.55,3.55,0,0,1,3.54-3.54h7.07A3.55,3.55,0,0,1,60,35.61v.93a2.69,2.69,0,0,1,.68-.33l1.71-.46a3,3,0,0,1,2.32.47,29.58,29.58,0,0,0,7.51-2A3,3,0,0,1,74,32.64l1.7-.46a2.79,2.79,0,0,1,3.47,2L91.72,81.05A2.78,2.78,0,0,1,89.72,84.51ZM45.85,46.21H60V74.5H45.85Zm0,31.83H60v7.07a3.54,3.54,0,0,1-3.54,3.53H49.39a3.54,3.54,0,0,1-3.54-3.53Zm37.85.4-10.17-38L66.7,42.28l10.17,38Z"/></svg>