<svg xmlns="http://www.w3.org/2000/svg" viewBox="0 0 51.33 51.33"><defs><style>.cls-1{fill:#ec5f7b;}</style></defs><title>Recurso 12</title><g id="Capa_2" data-name="Capa 2"><g id="Capa_1-2" data-name="Capa 1"><path class="cls-1" d="M25.66,48.12a8,8,0,0,1-13.36-.89c-.09,0-.18.09-.27.09A8.82,8.82,0,0,1,3.21,38.5a10.18,10.18,0,0,1,.28-2.3A9.28,9.28,0,0,1,0,28.87a10,10,0,0,1,2.55-6.6,6.21,6.21,0,0,1-.14-1.42,8,8,0,0,1,4-7v-.27a8,8,0,0,1,5-7.44,8,8,0,0,1,14.22-3,8,8,0,0,1,14.23,3,8,8,0,0,1,5,7.44c0,.09-.09.18-.09.27a7.92,7.92,0,0,1,4.1,7,6.83,6.83,0,0,1-.14,1.42,9.9,9.9,0,0,1,2.55,6.6,9.31,9.31,0,0,1-3.49,7.33,10.18,10.18,0,0,1,.28,2.3,8.82,8.82,0,0,1-8.82,8.82c-.09,0-.18-.09-.27-.09a8,8,0,0,1-13.37.89ZM14.36,8.69,13.25,9a4.81,4.81,0,0,0-3.54,5.59L10,15.87l-1.26.48a4.92,4.92,0,0,0-3.19,4.5,4.06,4.06,0,0,0,.33,1.42l.33,1-.79.78a6.3,6.3,0,0,0,.84,10.27l1.16.73-.53,1.26a5.47,5.47,0,0,0-.53,2.19,5.67,5.67,0,0,0,5.61,5.61A6.11,6.11,0,0,0,13,44l1.31-.31L14.76,45A4.76,4.76,0,0,0,24,43.31V8a4.76,4.76,0,0,0-9.51-.46ZM27.27,43.31A4.81,4.81,0,0,0,36.57,45L37,43.72l1.31.31a5.8,5.8,0,0,0,.95.08,5.62,5.62,0,0,0,5.17-7.8l-.54-1.26,1.16-.73a6.64,6.64,0,0,0,3-5.54A6.39,6.39,0,0,0,46,24.05l-.81-.78.33-1a4,4,0,0,0,.24-1.51,4.8,4.8,0,0,0-3.09-4.41l-1.26-.48.25-1.31a5.09,5.09,0,0,0,.09-1A4.79,4.79,0,0,0,38.08,9L37,8.69l-.1-1.13a4.85,4.85,0,0,0-9.69.37Z"/></g></g></svg>