<svg id="Capa_1" data-name="Capa 1" xmlns="http://www.w3.org/2000/svg" viewBox="0 0 120 120"><defs><style>.cls-1{fill:#fff;}</style></defs><title>Mesa de trabajo 1 copia 80</title><path class="cls-1" d="M37,42A22.48,22.48,0,0,1,69.84,72.68l-.82.95a3.75,3.75,0,0,1-5.66-4.93l.84-1a15,15,0,0,0-22-20.45L24.63,65A15,15,0,0,0,45.08,86.87l1-.85A3.75,3.75,0,0,1,51,91.66l-1,.85A22.48,22.48,0,0,1,19.33,59.7ZM83,80.9A22.48,22.48,0,0,1,50.14,50.21l.74-.84a3.75,3.75,0,0,1,5.65,4.93l-.73.85A15,15,0,0,0,77.67,75.6L95.38,57.9A15,15,0,0,0,74.92,36l-1,.84A3.75,3.75,0,0,1,69,31.22l1-.83A22.48,22.48,0,0,1,100.67,63.2Z"/></svg>