<svg id="Capa_1" data-name="Capa 1" xmlns="http://www.w3.org/2000/svg" viewBox="0 0 120 120"><defs><style>.cls-1{fill:#fff;}</style></defs><title>Mesa de trabajo 1 copia 64</title><path class="cls-1" d="M93.12,46.37H26.88A1.88,1.88,0,0,1,25,44.49V38.87a7.5,7.5,0,0,1,7.5-7.5H40V23.24a1.88,1.88,0,0,1,1.88-1.87h6.24A1.88,1.88,0,0,1,50,23.24v8.13H70V23.24a1.88,1.88,0,0,1,1.88-1.87h6.24A1.88,1.88,0,0,1,80,23.24v8.13h7.5a7.5,7.5,0,0,1,7.5,7.5v5.62A1.88,1.88,0,0,1,93.12,46.37Zm0,5A1.88,1.88,0,0,1,95,53.24V93.87a7.5,7.5,0,0,1-7.5,7.5h-55a7.5,7.5,0,0,1-7.5-7.5V53.24a1.88,1.88,0,0,1,1.88-1.87Z"/></svg>