<svg id="Capa_1" data-name="Capa 1" xmlns="http://www.w3.org/2000/svg" viewBox="0 0 120 120"><defs><style>.cls-1{fill:#2dba9f;}.cls-2{fill:#fff;}</style></defs><title>Mesa de trabajo 1 copia 53</title><rect class="cls-1" x="5" y="5" width="110" height="110" rx="14"/><path class="cls-2" d="M35.25,35.61a3.54,3.54,0,0,1,3.54,3.54V76.27A1.77,1.77,0,0,0,40.55,78h44.2a3.54,3.54,0,1,1,0,7.07H40.55a8.83,8.83,0,0,1-8.83-8.84V39.15A3.53,3.53,0,0,1,35.25,35.61ZM49.39,56.82a3.53,3.53,0,0,1,3.54,3.54v7.07a3.54,3.54,0,1,1-7.07,0V60.36A3.53,3.53,0,0,1,49.39,56.82ZM63.54,67.43a3.54,3.54,0,1,1-7.08,0V49.75a3.54,3.54,0,0,1,7.08,0Zm7.07-14.14a3.53,3.53,0,0,1,3.53,3.53V67.43a3.54,3.54,0,1,1-7.07,0V56.82A3.53,3.53,0,0,1,70.61,53.29ZM84.75,67.43a3.54,3.54,0,1,1-7.07,0V42.68a3.54,3.54,0,0,1,7.07,0Z"/></svg>