<svg id="Capa_1" data-name="Capa 1" xmlns="http://www.w3.org/2000/svg" xmlns:xlink="http://www.w3.org/1999/xlink" viewBox="0 0 120 120"><defs><style>.cls-1{fill:none;}.cls-2{fill:#fff;}.cls-3{clip-path:url(#clip-path);}.cls-4{fill:#a464b7;}.cls-5{fill:#a364b8;}.cls-6{fill:#a264b9;}.cls-7{fill:#a165ba;}.cls-8{fill:#a065bb;}.cls-9{fill:#9f65bc;}.cls-10{fill:#9e65bd;}.cls-11{fill:#9d65be;}.cls-12{fill:#9c65be;}.cls-13{fill:#9b65bf;}.cls-14{fill:#9a65c0;}.cls-15{fill:#9965c1;}.cls-16{fill:#9865c2;}.cls-17{fill:#9765c3;}.cls-18{fill:#9665c4;}.cls-19{fill:#9565c5;}.cls-20{fill:#9466c6;}.cls-21{fill:#9366c6;}.cls-22{fill:#9266c7;}.cls-23{fill:#9166c8;}.cls-24{fill:#9066c9;}.cls-25{fill:#8f66ca;}.cls-26{fill:#8e66cb;}.cls-27{fill:#8d66cc;}.cls-28{fill:#8c66cd;}.cls-29{fill:#8b66ce;}.cls-30{fill:#8a66ce;}.cls-31{fill:#8966cf;}.cls-32{fill:#8866d0;}.cls-33{fill:#8767d1;}.cls-34{fill:#8667d2;}.cls-35{fill:#8567d3;}.cls-36{fill:#8467d4;}.cls-37{fill:#8367d5;}.cls-38{fill:#8267d6;}.cls-39{fill:#8167d6;}.cls-40{fill:#8067d7;}.cls-41{fill:#7f67d8;}.cls-42{fill:#7e67d9;}.cls-43{fill:#7d67da;}.cls-44{fill:#7c67db;}.cls-45{fill:#7b67dc;}.cls-46{fill:#7a68dd;}.cls-47{fill:#7968de;}.cls-48{fill:#7868de;}.cls-49{fill:#ad64af;}.cls-50{fill:#ac64b0;}.cls-51{fill:#ab64b1;}.cls-52{fill:#aa64b2;}.cls-53{fill:#a964b3;}.cls-54{fill:#a864b4;}.cls-55{fill:#a764b5;}.cls-56{fill:#a664b6;}.cls-57{fill:#a564b6;}.cls-58{fill:#d5618d;}.cls-59{fill:#d4618e;}.cls-60{fill:#d3618f;}.cls-61{fill:#d2618f;}.cls-62{fill:#d16190;}.cls-63{fill:#d06191;}.cls-64{fill:#cf6192;}.cls-65{fill:#ce6193;}.cls-66{fill:#cd6194;}.cls-67{fill:#cc6195;}.cls-68{fill:#cb6196;}.cls-69{fill:#ca6197;}.cls-70{fill:#c96197;}.cls-71{fill:#c86298;}.cls-72{fill:#c76299;}.cls-73{fill:#c6629a;}.cls-74{fill:#c5629b;}.cls-75{fill:#c4629c;}.cls-76{fill:#c3629d;}.cls-77{fill:#c2629e;}.cls-78{fill:#c1629f;}.cls-79{fill:#c0629f;}.cls-80{fill:#bf62a0;}.cls-81{fill:#be62a1;}.cls-82{fill:#bd62a2;}.cls-83{fill:#bc62a3;}.cls-84{fill:#bb63a4;}.cls-85{fill:#ba63a5;}.cls-86{fill:#b963a6;}.cls-87{fill:#b863a7;}.cls-88{fill:#b763a7;}.cls-89{fill:#b663a8;}.cls-90{fill:#b563a9;}.cls-91{fill:#b463aa;}.cls-92{fill:#b363ab;}.cls-93{fill:#b263ac;}.cls-94{fill:#b163ad;}.cls-95{fill:#e65f7e;}.cls-96{fill:#e55f7f;}.cls-97{fill:#e45f7f;}.cls-98{fill:#e35f80;}.cls-99{fill:#e26081;}.cls-100{fill:#e16082;}.cls-101{fill:#e06083;}.cls-102{fill:#df6084;}.cls-103{fill:#de6085;}.cls-104{fill:#dd6086;}.cls-105{fill:#dc6087;}.cls-106{fill:#db6087;}.cls-107{fill:#da6088;}.cls-108{fill:#d96089;}.cls-109{fill:#d8608a;}.cls-110{fill:#d7608b;}.cls-111{fill:#d6608c;}.cls-112{fill:#e95f7b;}.cls-113{fill:#e85f7c;}.cls-114{fill:#e75f7d;}.cls-115{fill:#b063ae;}.cls-116{fill:#af64af;}.cls-117{fill:#7768df;}.cls-118{fill:#7668e0;}.cls-119{fill:#7568e1;}.cls-120{fill:#7468e2;}</style><clipPath id="clip-path"><path class="cls-1" d="M91.21,38.32a18.43,18.43,0,0,0-13.13-5.5H78a18.46,18.46,0,0,0-13.21,5.49L60,43.18l-4.78-4.82a18.58,18.58,0,0,0-26.43,0A19,19,0,0,0,28.8,65l8.12,8.25,3.32,3.37S56.8,93.46,59.19,95.87l0,0a1.19,1.19,0,0,0,1.64,0L69.65,87l.2-.2.23-.25s.28-.29.74-.77l5.24-5.37c4.73-4.86,10.53-10.81,10.54-10.81L91.21,65A19,19,0,0,0,91.21,38.32Zm-56.87,29-3.87-3.93a16.55,16.55,0,0,1,0-23.35,16.1,16.1,0,0,1,22.67-.4h0a8.12,8.12,0,0,0-3.92,1,8,8,0,0,0-3.76,4.63l0,.06h-.06a6.73,6.73,0,0,0-1.43.3,10,10,0,0,0-5.37,5.15,9.49,9.49,0,0,0-.49,7.88l0,.07-.06,0a9.31,9.31,0,0,0-3.69,8.53ZM58.82,92.14l-4.47-4.51-1.64-1.82a3.55,3.55,0,0,1-1-2.57,3.61,3.61,0,0,1,1.14-2.51A1.18,1.18,0,1,0,51.27,79a5.86,5.86,0,0,0-1.76,3.18l0,.5-.92-.93-.31-.32h0l-4.88-5h0c-1.28-1.28-2.92-3-4.66-4.74h0A9.34,9.34,0,0,1,36.86,68a6.92,6.92,0,0,1,.74-5.26,7,7,0,0,1,4.25-3.21,5.8,5.8,0,0,1,1.31-.16,5.25,5.25,0,0,1,3,.91l.07,0,0,.07a5.27,5.27,0,0,0-.47,2.85,1.2,1.2,0,0,0,1.18,1H47a1.24,1.24,0,0,0,.79-.44,1.2,1.2,0,0,0,.24-.88,2.92,2.92,0,0,1,2.55-3.24,1.18,1.18,0,0,0-.15-2.36h-.14a5.24,5.24,0,0,0-2.57,1.07l-.06,0,0,0a7.74,7.74,0,0,0-6.38-1.18,7.13,7.13,0,0,0-1,.32l-.09,0,0-.1a7.43,7.43,0,0,1,.54-5.68,7.62,7.62,0,0,1,4-3.94,3.2,3.2,0,0,1,1.14-.21,3,3,0,0,1,1.25.26A3.65,3.65,0,0,1,48.83,51,1.18,1.18,0,0,0,50,52.06h.11a1.19,1.19,0,0,0,1.07-1.29,6,6,0,0,0-3.1-5l-.11,0-.11,0,0,0v-.09a5.7,5.7,0,0,1,11,2.11V61.8a3.6,3.6,0,0,1-3.6,3.6,1.19,1.19,0,0,0,0,2.37,5.86,5.86,0,0,0,3.45-1.13l.15-.1ZM83.13,68a10.12,10.12,0,0,1-1.51,3.34l-.13.12h0l-.48.48h0l-1,1a4.56,4.56,0,0,0-.69.7L73,80.11l-.71.73a3.61,3.61,0,0,1-5.09-.18,1.19,1.19,0,0,0-1.73,1.62A5.86,5.86,0,0,0,68.69,84l.48,0L68,85.32h0l-.14.14c-.19.16-4.5,4.52-6.64,6.68V72.93a3.6,3.6,0,0,1,3.6-3.6,1.19,1.19,0,0,0,0-2.37,5.86,5.86,0,0,0-3.45,1.13l-.15.1V47.69a5.7,5.7,0,0,1,9.74-4,5.5,5.5,0,0,1,1.25,1.91l0,.08-.08,0-.09,0-.12,0a5.39,5.39,0,0,0-2.56,2.82l0,.1-.09,0a5.31,5.31,0,0,0-2.17-.58h0a1.18,1.18,0,0,0-1.18,1.14A1.2,1.2,0,0,0,67,50.43a2.91,2.91,0,0,1,2.79,3,1.15,1.15,0,0,0,.32.84,1.17,1.17,0,0,0,.82.38h0a1.18,1.18,0,0,0,1.18-1.13,5.21,5.21,0,0,0-.84-3l0,0v0a3.45,3.45,0,0,1,1.67-2.54,3.5,3.5,0,0,1,3.19.33,8.08,8.08,0,0,1,3.18,3.57,7.44,7.44,0,0,1,.55,5.68l0,.1-.09,0c-.32-.12-.66-.23-1-.32A7.28,7.28,0,0,0,76.82,57a7.66,7.66,0,0,0-5.39,2.21,1.18,1.18,0,0,0,.83,2,1.16,1.16,0,0,0,.83-.34,5.31,5.31,0,0,1,3.73-1.52,5.44,5.44,0,0,1,1.33.16,7,7,0,0,1,4.25,3.21A6.89,6.89,0,0,1,83.13,68Zm6.41-4.66-3.87,3.9A9.33,9.33,0,0,0,82,58.75l0,0,0-.06a9.56,9.56,0,0,0-.49-7.88,10.35,10.35,0,0,0-4.16-4.6,6.69,6.69,0,0,0-2.63-.86h-.06l0,0a8,8,0,0,0-7.68-5.63h-.08A16.13,16.13,0,0,1,78,35.13h.28A16.22,16.22,0,0,1,89.54,40a16.57,16.57,0,0,1,0,23.35Z"/></clipPath></defs><title>Mesa de trabajo 1 copia 79</title><rect class="cls-2" x="5" y="5" width="110" height="110" rx="14"/><g class="cls-3"><rect class="cls-4" x="66.81" y="35.13" width="0.18" height="32.09"/><rect class="cls-5" x="66.99" y="35.13" width="0.63" height="32.09"/><rect class="cls-6" x="67.63" y="35.13" width="0.63" height="32.09"/><rect class="cls-7" x="68.26" y="35.13" width="0.63" height="32.09"/><rect class="cls-8" x="68.89" y="35.13" width="0.63" height="32.09"/><rect class="cls-9" x="69.52" y="35.13" width="0.63" height="32.09"/><rect class="cls-10" x="70.16" y="35.13" width="0.63" height="32.09"/><rect class="cls-11" x="70.79" y="35.13" width="0.63" height="32.09"/><rect class="cls-12" x="71.42" y="35.13" width="0.63" height="32.09"/><rect class="cls-13" x="72.06" y="35.13" width="0.63" height="32.09"/><rect class="cls-14" x="72.69" y="35.13" width="0.63" height="32.09"/><rect class="cls-15" x="73.32" y="35.13" width="0.63" height="32.09"/><rect class="cls-16" x="73.95" y="35.13" width="0.63" height="32.09"/><rect class="cls-17" x="74.59" y="35.13" width="0.63" height="32.09"/><rect class="cls-18" x="75.22" y="35.13" width="0.63" height="32.09"/><rect class="cls-19" x="75.85" y="35.13" width="0.63" height="32.09"/><rect class="cls-20" x="76.48" y="35.13" width="0.63" height="32.09"/><rect class="cls-21" x="77.12" y="35.13" width="0.63" height="32.09"/><rect class="cls-22" x="77.75" y="35.13" width="0.63" height="32.09"/><rect class="cls-23" x="78.38" y="35.13" width="0.63" height="32.09"/><rect class="cls-24" x="79.02" y="35.13" width="0.63" height="32.09"/><rect class="cls-25" x="79.65" y="35.13" width="0.63" height="32.09"/><rect class="cls-26" x="80.28" y="35.13" width="0.63" height="32.09"/><rect class="cls-27" x="80.91" y="35.13" width="0.63" height="32.09"/><rect class="cls-28" x="81.55" y="35.13" width="0.63" height="32.09"/><rect class="cls-29" x="82.18" y="35.13" width="0.63" height="32.09"/><rect class="cls-30" x="82.81" y="35.13" width="0.63" height="32.09"/><rect class="cls-31" x="83.44" y="35.13" width="0.63" height="32.09"/><rect class="cls-32" x="84.08" y="35.13" width="0.63" height="32.09"/><rect class="cls-33" x="84.71" y="35.13" width="0.63" height="32.09"/><rect class="cls-34" x="85.34" y="35.13" width="0.63" height="32.09"/><rect class="cls-35" x="85.98" y="35.13" width="0.63" height="32.09"/><rect class="cls-36" x="86.61" y="35.13" width="0.63" height="32.09"/><rect class="cls-37" x="87.24" y="35.13" width="0.63" height="32.09"/><rect class="cls-38" x="87.87" y="35.13" width="0.63" height="32.09"/><rect class="cls-39" x="88.51" y="35.13" width="0.63" height="32.09"/><rect class="cls-40" x="89.14" y="35.13" width="0.63" height="32.09"/><rect class="cls-41" x="89.77" y="35.13" width="0.63" height="32.09"/><rect class="cls-42" x="90.41" y="35.13" width="0.63" height="32.09"/><rect class="cls-43" x="91.04" y="35.13" width="0.63" height="32.09"/><rect class="cls-44" x="91.67" y="35.13" width="0.63" height="32.09"/><rect class="cls-45" x="92.3" y="35.13" width="0.63" height="32.09"/><rect class="cls-46" x="92.94" y="35.13" width="0.63" height="32.09"/><rect class="cls-47" x="93.57" y="35.13" width="0.63" height="32.09"/><rect class="cls-48" x="94.2" y="35.13" width="0.15" height="32.09"/><rect class="cls-49" x="61.18" y="41.98" width="0.12" height="50.16"/><rect class="cls-50" x="61.3" y="41.98" width="0.63" height="50.16"/><rect class="cls-51" x="61.93" y="41.98" width="0.63" height="50.16"/><rect class="cls-52" x="62.56" y="41.98" width="0.63" height="50.16"/><rect class="cls-53" x="63.2" y="41.98" width="0.63" height="50.16"/><rect class="cls-54" x="63.83" y="41.98" width="0.63" height="50.16"/><rect class="cls-55" x="64.46" y="41.98" width="0.63" height="50.16"/><rect class="cls-56" x="65.1" y="41.98" width="0.63" height="50.16"/><rect class="cls-57" x="65.73" y="41.98" width="0.63" height="50.16"/><rect class="cls-4" x="66.36" y="41.98" width="0.63" height="50.16"/><rect class="cls-5" x="66.99" y="41.98" width="0.63" height="50.16"/><rect class="cls-6" x="67.63" y="41.98" width="0.63" height="50.16"/><rect class="cls-7" x="68.26" y="41.98" width="0.63" height="50.16"/><rect class="cls-8" x="68.89" y="41.98" width="0.63" height="50.16"/><rect class="cls-9" x="69.52" y="41.98" width="0.63" height="50.16"/><rect class="cls-10" x="70.16" y="41.98" width="0.63" height="50.16"/><rect class="cls-11" x="70.79" y="41.98" width="0.63" height="50.16"/><rect class="cls-12" x="71.42" y="41.98" width="0.63" height="50.16"/><rect class="cls-13" x="72.06" y="41.98" width="0.63" height="50.16"/><rect class="cls-14" x="72.69" y="41.98" width="0.63" height="50.16"/><rect class="cls-15" x="73.32" y="41.98" width="0.63" height="50.16"/><rect class="cls-16" x="73.95" y="41.98" width="0.63" height="50.16"/><rect class="cls-17" x="74.59" y="41.98" width="0.63" height="50.16"/><rect class="cls-18" x="75.22" y="41.98" width="0.63" height="50.16"/><rect class="cls-19" x="75.85" y="41.98" width="0.63" height="50.16"/><rect class="cls-20" x="76.48" y="41.98" width="0.63" height="50.16"/><rect class="cls-21" x="77.12" y="41.98" width="0.63" height="50.16"/><rect class="cls-22" x="77.75" y="41.98" width="0.63" height="50.16"/><rect class="cls-23" x="78.38" y="41.98" width="0.63" height="50.16"/><rect class="cls-24" x="79.02" y="41.98" width="0.63" height="50.16"/><rect class="cls-25" x="79.65" y="41.98" width="0.63" height="50.16"/><rect class="cls-26" x="80.28" y="41.98" width="0.63" height="50.16"/><rect class="cls-27" x="80.91" y="41.98" width="0.63" height="50.16"/><rect class="cls-28" x="81.55" y="41.98" width="0.63" height="50.16"/><rect class="cls-29" x="82.18" y="41.98" width="0.63" height="50.16"/><rect class="cls-30" x="82.81" y="41.98" width="0.63" height="50.16"/><rect class="cls-31" x="83.44" y="41.98" width="0.15" height="50.16"/><rect class="cls-58" x="36.4" y="41.98" width="0.22" height="50.15"/><rect class="cls-59" x="36.62" y="41.98" width="0.63" height="50.15"/><rect class="cls-60" x="37.25" y="41.98" width="0.63" height="50.15"/><rect class="cls-61" x="37.89" y="41.98" width="0.63" height="50.15"/><rect class="cls-62" x="38.52" y="41.98" width="0.63" height="50.15"/><rect class="cls-63" x="39.15" y="41.98" width="0.63" height="50.15"/><rect class="cls-64" x="39.78" y="41.98" width="0.63" height="50.15"/><rect class="cls-65" x="40.42" y="41.98" width="0.63" height="50.15"/><rect class="cls-66" x="41.05" y="41.98" width="0.63" height="50.15"/><rect class="cls-67" x="41.68" y="41.98" width="0.63" height="50.15"/><rect class="cls-68" x="42.32" y="41.98" width="0.63" height="50.15"/><rect class="cls-69" x="42.95" y="41.98" width="0.63" height="50.15"/><rect class="cls-70" x="43.58" y="41.98" width="0.63" height="50.15"/><rect class="cls-71" x="44.21" y="41.98" width="0.63" height="50.15"/><rect class="cls-72" x="44.85" y="41.98" width="0.63" height="50.15"/><rect class="cls-73" x="45.48" y="41.98" width="0.63" height="50.15"/><rect class="cls-74" x="46.11" y="41.98" width="0.63" height="50.15"/><rect class="cls-75" x="46.75" y="41.98" width="0.63" height="50.15"/><rect class="cls-76" x="47.38" y="41.98" width="0.63" height="50.15"/><rect class="cls-77" x="48.01" y="41.98" width="0.63" height="50.15"/><rect class="cls-78" x="48.64" y="41.98" width="0.63" height="50.15"/><rect class="cls-79" x="49.28" y="41.98" width="0.63" height="50.15"/><rect class="cls-80" x="49.91" y="41.98" width="0.63" height="50.15"/><rect class="cls-81" x="50.54" y="41.98" width="0.63" height="50.15"/><rect class="cls-82" x="51.17" y="41.98" width="0.63" height="50.15"/><rect class="cls-83" x="51.81" y="41.98" width="0.63" height="50.15"/><rect class="cls-84" x="52.44" y="41.98" width="0.63" height="50.15"/><rect class="cls-85" x="53.07" y="41.98" width="0.63" height="50.15"/><rect class="cls-86" x="53.71" y="41.98" width="0.63" height="50.15"/><rect class="cls-87" x="54.34" y="41.98" width="0.63" height="50.15"/><rect class="cls-88" x="54.97" y="41.98" width="0.63" height="50.15"/><rect class="cls-89" x="55.6" y="41.98" width="0.63" height="50.15"/><rect class="cls-90" x="56.24" y="41.98" width="0.63" height="50.15"/><rect class="cls-91" x="56.87" y="41.98" width="0.63" height="50.15"/><rect class="cls-92" x="57.5" y="41.98" width="0.63" height="50.15"/><rect class="cls-93" x="58.13" y="41.98" width="0.63" height="50.15"/><rect class="cls-94" x="58.77" y="41.98" width="0.05" height="50.15"/><rect class="cls-95" x="25.65" y="35.14" width="0.21" height="32.15"/><rect class="cls-96" x="25.86" y="35.14" width="0.63" height="32.15"/><rect class="cls-97" x="26.5" y="35.14" width="0.63" height="32.15"/><rect class="cls-98" x="27.13" y="35.14" width="0.63" height="32.15"/><rect class="cls-99" x="27.76" y="35.14" width="0.63" height="32.15"/><rect class="cls-100" x="28.4" y="35.14" width="0.63" height="32.15"/><rect class="cls-101" x="29.03" y="35.14" width="0.63" height="32.15"/><rect class="cls-102" x="29.66" y="35.14" width="0.63" height="32.15"/><rect class="cls-103" x="30.29" y="35.14" width="0.63" height="32.15"/><rect class="cls-104" x="30.93" y="35.14" width="0.63" height="32.15"/><rect class="cls-105" x="31.56" y="35.14" width="0.63" height="32.15"/><rect class="cls-106" x="32.19" y="35.14" width="0.63" height="32.15"/><rect class="cls-107" x="32.82" y="35.14" width="0.63" height="32.15"/><rect class="cls-108" x="33.46" y="35.14" width="0.63" height="32.15"/><rect class="cls-109" x="34.09" y="35.14" width="0.63" height="32.15"/><rect class="cls-110" x="34.72" y="35.14" width="0.63" height="32.15"/><rect class="cls-111" x="35.36" y="35.14" width="0.63" height="32.15"/><rect class="cls-58" x="35.99" y="35.14" width="0.63" height="32.15"/><rect class="cls-59" x="36.62" y="35.14" width="0.63" height="32.15"/><rect class="cls-60" x="37.25" y="35.14" width="0.63" height="32.15"/><rect class="cls-61" x="37.89" y="35.14" width="0.63" height="32.15"/><rect class="cls-62" x="38.52" y="35.14" width="0.63" height="32.15"/><rect class="cls-63" x="39.15" y="35.14" width="0.63" height="32.15"/><rect class="cls-64" x="39.78" y="35.14" width="0.63" height="32.15"/><rect class="cls-65" x="40.42" y="35.14" width="0.63" height="32.15"/><rect class="cls-66" x="41.05" y="35.14" width="0.63" height="32.15"/><rect class="cls-67" x="41.68" y="35.14" width="0.63" height="32.15"/><rect class="cls-68" x="42.32" y="35.14" width="0.63" height="32.15"/><rect class="cls-69" x="42.95" y="35.14" width="0.63" height="32.15"/><rect class="cls-70" x="43.58" y="35.14" width="0.63" height="32.15"/><rect class="cls-71" x="44.21" y="35.14" width="0.63" height="32.15"/><rect class="cls-72" x="44.85" y="35.14" width="0.63" height="32.15"/><rect class="cls-73" x="45.48" y="35.14" width="0.63" height="32.15"/><rect class="cls-74" x="46.11" y="35.14" width="0.63" height="32.15"/><rect class="cls-75" x="46.75" y="35.14" width="0.63" height="32.15"/><rect class="cls-76" x="47.38" y="35.14" width="0.63" height="32.15"/><rect class="cls-77" x="48.01" y="35.14" width="0.63" height="32.15"/><rect class="cls-78" x="48.64" y="35.14" width="0.63" height="32.15"/><rect class="cls-79" x="49.28" y="35.14" width="0.63" height="32.15"/><rect class="cls-80" x="49.91" y="35.14" width="0.63" height="32.15"/><rect class="cls-81" x="50.54" y="35.14" width="0.63" height="32.15"/><rect class="cls-82" x="51.17" y="35.14" width="0.63" height="32.15"/><rect class="cls-83" x="51.81" y="35.14" width="0.63" height="32.15"/><rect class="cls-84" x="52.44" y="35.14" width="0.63" height="32.15"/><rect class="cls-85" x="53.07" y="35.14" width="0.07" height="32.15"/><rect class="cls-112" x="21.51" y="32.82" width="1.82" height="63.4"/><rect class="cls-112" x="23.33" y="32.82" width="0.63" height="63.4"/><rect class="cls-113" x="23.97" y="32.82" width="0.63" height="63.4"/><rect class="cls-114" x="24.6" y="32.82" width="0.63" height="63.4"/><rect class="cls-95" x="25.23" y="32.82" width="0.63" height="63.4"/><rect class="cls-96" x="25.86" y="32.82" width="0.63" height="63.4"/><rect class="cls-97" x="26.5" y="32.82" width="0.63" height="63.4"/><rect class="cls-98" x="27.13" y="32.82" width="0.63" height="63.4"/><rect class="cls-99" x="27.76" y="32.82" width="0.63" height="63.4"/><rect class="cls-100" x="28.4" y="32.82" width="0.63" height="63.4"/><rect class="cls-101" x="29.03" y="32.82" width="0.63" height="63.4"/><rect class="cls-102" x="29.66" y="32.82" width="0.63" height="63.4"/><rect class="cls-103" x="30.29" y="32.82" width="0.63" height="63.4"/><rect class="cls-104" x="30.93" y="32.82" width="0.63" height="63.4"/><rect class="cls-105" x="31.56" y="32.82" width="0.63" height="63.4"/><rect class="cls-106" x="32.19" y="32.82" width="0.63" height="63.4"/><rect class="cls-107" x="32.82" y="32.82" width="0.63" height="63.4"/><rect class="cls-108" x="33.46" y="32.82" width="0.63" height="63.4"/><rect class="cls-109" x="34.09" y="32.82" width="0.63" height="63.4"/><rect class="cls-110" x="34.72" y="32.82" width="0.63" height="63.4"/><rect class="cls-111" x="35.36" y="32.82" width="0.63" height="63.4"/><rect class="cls-58" x="35.99" y="32.82" width="0.63" height="63.4"/><rect class="cls-59" x="36.62" y="32.82" width="0.63" height="63.4"/><rect class="cls-60" x="37.25" y="32.82" width="0.63" height="63.4"/><rect class="cls-61" x="37.89" y="32.82" width="0.63" height="63.4"/><rect class="cls-62" x="38.52" y="32.82" width="0.63" height="63.4"/><rect class="cls-63" x="39.15" y="32.82" width="0.63" height="63.4"/><rect class="cls-64" x="39.78" y="32.82" width="0.63" height="63.4"/><rect class="cls-65" x="40.42" y="32.82" width="0.63" height="63.4"/><rect class="cls-66" x="41.05" y="32.82" width="0.63" height="63.4"/><rect class="cls-67" x="41.68" y="32.82" width="0.63" height="63.4"/><rect class="cls-68" x="42.32" y="32.82" width="0.63" height="63.4"/><rect class="cls-69" x="42.95" y="32.82" width="0.63" height="63.4"/><rect class="cls-70" x="43.58" y="32.82" width="0.63" height="63.4"/><rect class="cls-71" x="44.21" y="32.82" width="0.63" height="63.4"/><rect class="cls-72" x="44.85" y="32.82" width="0.63" height="63.4"/><rect class="cls-73" x="45.48" y="32.82" width="0.63" height="63.4"/><rect class="cls-74" x="46.11" y="32.82" width="0.63" height="63.4"/><rect class="cls-75" x="46.75" y="32.82" width="0.63" height="63.4"/><rect class="cls-76" x="47.38" y="32.82" width="0.63" height="63.4"/><rect class="cls-77" x="48.01" y="32.82" width="0.63" height="63.4"/><rect class="cls-78" x="48.64" y="32.82" width="0.63" height="63.4"/><rect class="cls-79" x="49.28" y="32.82" width="0.63" height="63.4"/><rect class="cls-80" x="49.91" y="32.82" width="0.63" height="63.4"/><rect class="cls-81" x="50.54" y="32.82" width="0.63" height="63.4"/><rect class="cls-82" x="51.17" y="32.82" width="0.63" height="63.4"/><rect class="cls-83" x="51.81" y="32.82" width="0.63" height="63.4"/><rect class="cls-84" x="52.44" y="32.82" width="0.63" height="63.4"/><rect class="cls-85" x="53.07" y="32.82" width="0.63" height="63.4"/><rect class="cls-86" x="53.71" y="32.82" width="0.63" height="63.4"/><rect class="cls-87" x="54.34" y="32.82" width="0.63" height="63.4"/><rect class="cls-88" x="54.97" y="32.82" width="0.63" height="63.4"/><rect class="cls-89" x="55.6" y="32.82" width="0.63" height="63.4"/><rect class="cls-90" x="56.24" y="32.82" width="0.63" height="63.4"/><rect class="cls-91" x="56.87" y="32.82" width="0.63" height="63.4"/><rect class="cls-92" x="57.5" y="32.82" width="0.63" height="63.4"/><rect class="cls-93" x="58.13" y="32.82" width="0.63" height="63.4"/><rect class="cls-94" x="58.77" y="32.82" width="0.63" height="63.4"/><rect class="cls-115" x="59.4" y="32.82" width="0.63" height="63.4"/><rect class="cls-116" x="60.03" y="32.82" width="0.63" height="63.4"/><rect class="cls-49" x="60.67" y="32.82" width="0.63" height="63.4"/><rect class="cls-50" x="61.3" y="32.82" width="0.63" height="63.4"/><rect class="cls-51" x="61.93" y="32.82" width="0.63" height="63.4"/><rect class="cls-52" x="62.56" y="32.82" width="0.63" height="63.4"/><rect class="cls-53" x="63.2" y="32.82" width="0.63" height="63.4"/><rect class="cls-54" x="63.83" y="32.82" width="0.63" height="63.4"/><rect class="cls-55" x="64.46" y="32.82" width="0.63" height="63.4"/><rect class="cls-56" x="65.1" y="32.82" width="0.63" height="63.4"/><rect class="cls-57" x="65.73" y="32.82" width="0.63" height="63.4"/><rect class="cls-4" x="66.36" y="32.82" width="0.63" height="63.4"/><rect class="cls-5" x="66.99" y="32.82" width="0.63" height="63.4"/><rect class="cls-6" x="67.63" y="32.82" width="0.63" height="63.4"/><rect class="cls-7" x="68.26" y="32.82" width="0.63" height="63.4"/><rect class="cls-8" x="68.89" y="32.82" width="0.63" height="63.4"/><rect class="cls-9" x="69.52" y="32.82" width="0.63" height="63.4"/><rect class="cls-10" x="70.16" y="32.82" width="0.63" height="63.4"/><rect class="cls-11" x="70.79" y="32.82" width="0.63" height="63.4"/><rect class="cls-12" x="71.42" y="32.82" width="0.63" height="63.4"/><rect class="cls-13" x="72.06" y="32.82" width="0.63" height="63.4"/><rect class="cls-14" x="72.69" y="32.82" width="0.63" height="63.4"/><rect class="cls-15" x="73.32" y="32.82" width="0.63" height="63.4"/><rect class="cls-16" x="73.95" y="32.82" width="0.63" height="63.4"/><rect class="cls-17" x="74.59" y="32.82" width="0.63" height="63.4"/><rect class="cls-18" x="75.22" y="32.82" width="0.63" height="63.4"/><rect class="cls-19" x="75.85" y="32.82" width="0.63" height="63.4"/><rect class="cls-20" x="76.48" y="32.82" width="0.63" height="63.4"/><rect class="cls-21" x="77.12" y="32.82" width="0.63" height="63.4"/><rect class="cls-22" x="77.75" y="32.82" width="0.63" height="63.4"/><rect class="cls-23" x="78.38" y="32.82" width="0.63" height="63.4"/><rect class="cls-24" x="79.02" y="32.82" width="0.63" height="63.4"/><rect class="cls-25" x="79.65" y="32.82" width="0.63" height="63.4"/><rect class="cls-26" x="80.28" y="32.82" width="0.63" height="63.4"/><rect class="cls-27" x="80.91" y="32.82" width="0.63" height="63.4"/><rect class="cls-28" x="81.55" y="32.82" width="0.63" height="63.4"/><rect class="cls-29" x="82.18" y="32.82" width="0.63" height="63.4"/><rect class="cls-30" x="82.81" y="32.82" width="0.63" height="63.4"/><rect class="cls-31" x="83.44" y="32.82" width="0.63" height="63.4"/><rect class="cls-32" x="84.08" y="32.82" width="0.63" height="63.4"/><rect class="cls-33" x="84.71" y="32.82" width="0.63" height="63.4"/><rect class="cls-34" x="85.34" y="32.82" width="0.63" height="63.4"/><rect class="cls-35" x="85.98" y="32.82" width="0.63" height="63.4"/><rect class="cls-36" x="86.61" y="32.82" width="0.63" height="63.4"/><rect class="cls-37" x="87.24" y="32.82" width="0.63" height="63.4"/><rect class="cls-38" x="87.87" y="32.82" width="0.63" height="63.4"/><rect class="cls-39" x="88.51" y="32.82" width="0.63" height="63.4"/><rect class="cls-40" x="89.14" y="32.82" width="0.63" height="63.4"/><rect class="cls-41" x="89.77" y="32.82" width="0.63" height="63.4"/><rect class="cls-42" x="90.41" y="32.82" width="0.63" height="63.4"/><rect class="cls-43" x="91.04" y="32.82" width="0.63" height="63.4"/><rect class="cls-44" x="91.67" y="32.82" width="0.63" height="63.4"/><rect class="cls-45" x="92.3" y="32.82" width="0.63" height="63.4"/><rect class="cls-46" x="92.94" y="32.82" width="0.63" height="63.4"/><rect class="cls-47" x="93.57" y="32.82" width="0.63" height="63.4"/><rect class="cls-48" x="94.2" y="32.82" width="0.63" height="63.4"/><rect class="cls-117" x="94.83" y="32.82" width="0.63" height="63.4"/><rect class="cls-118" x="95.47" y="32.82" width="0.63" height="63.4"/><rect class="cls-119" x="96.1" y="32.82" width="0.63" height="63.4"/><rect class="cls-120" x="96.73" y="32.82" width="0.63" height="63.4"/><rect class="cls-120" x="97.37" y="32.82" width="1.12" height="63.4"/></g></svg>