<?xml version="1.0" encoding="utf-8"?>
<!-- Generator: Adobe Illustrator 23.1.1, SVG Export Plug-In . SVG Version: 6.00 Build 0)  -->
<svg version="1.1" id="Capa_1" xmlns="http://www.w3.org/2000/svg" xmlns:xlink="http://www.w3.org/1999/xlink" x="0px" y="0px"
	 viewBox="0 0 120 120" style="enable-background:new 0 0 120 120;" xml:space="preserve">
<style type="text/css">
	.st0{enable-background:new    ;}
	.st1{fill:#7468E5;}
</style>
<title>CiviConecta - iconos</title>
<g class="st0">
	<path class="st1" d="M100,38.9v45c0,4.1-3.4,7.5-7.5,7.5h-65c-4.1,0-7.5-3.4-7.5-7.5v-45c0-4.1,3.4-7.5,7.5-7.5h65
		C96.6,31.4,100,34.7,100,38.9z M27.5,38.9v6.4c3.5,2.9,9.1,7.3,21,16.6c2.6,2.1,7.8,7,11.5,7c3.6,0.1,8.8-4.9,11.5-7
		c11.9-9.3,17.5-13.8,21-16.6v-6.4H27.5z M92.5,83.9v-29c-3.6,2.9-8.7,6.9-16.4,12.9c-3.5,2.8-9.4,8.6-16.1,8.6
		c-6.7,0-12.7-5.9-16.1-8.6c-7.7-6.1-12.8-10.1-16.4-12.9v29H92.5z"/>
</g>
</svg>
