<svg id="Capa_1" data-name="Capa 1" xmlns="http://www.w3.org/2000/svg" viewBox="0 0 120 120"><defs><style>.cls-1{fill:#54bfed;}</style></defs><title>Mesa de trabajo 1 copia 82</title><path class="cls-1" d="M93.61,80.52a34.7,34.7,0,0,0,0,11.68A3.78,3.78,0,0,1,95,95.12v2.5a3.74,3.74,0,0,1-3.75,3.75H40a15,15,0,0,1-15-15v-50a15,15,0,0,1,15-15H91.25A3.74,3.74,0,0,1,95,25.12v52.5A3.72,3.72,0,0,1,93.61,80.52Zm-9,.85H40a5,5,0,0,0,0,10H84.59A57.58,57.58,0,0,1,84.59,81.37ZM45,45.43a.94.94,0,0,0,.94.94H79.06a.94.94,0,0,0,.94-.94V42.3a.94.94,0,0,0-.94-.93H45.94a.94.94,0,0,0-.94.93Zm0,10a.94.94,0,0,0,.94.94H79.06a.94.94,0,0,0,.94-.94V52.3a.94.94,0,0,0-.94-.93H45.94a.94.94,0,0,0-.94.93Z"/></svg>