<svg width="25" height="30" viewBox="0 0 25 30" fill="none" xmlns="http://www.w3.org/2000/svg">
<path d="M5.33448 16.5391H17.1875C17.6019 16.5391 17.9993 16.3455 18.2924 16.0008C18.5854 15.6562 18.75 15.1888 18.75 14.7014C18.75 14.214 18.5854 13.7466 18.2924 13.402C17.9993 13.0573 17.6019 12.8637 17.1875 12.8637H5.33448L7.35474 10.4877C7.64639 10.1427 7.80984 9.67588 7.80927 9.18943C7.80869 8.70298 7.64413 8.23665 7.35167 7.89268C7.0592 7.54871 6.6627 7.35517 6.2491 7.35449C5.83549 7.35382 5.43853 7.54606 5.14526 7.88907L0.457758 13.4021C0.312635 13.5727 0.197514 13.7753 0.11897 13.9982C0.0404266 14.2211 0 14.4601 0 14.7014C0 14.9427 0.0404266 15.1817 0.11897 15.4046C0.197514 15.6276 0.312635 15.8301 0.457758 16.0007L5.14526 21.5137C5.29019 21.6851 5.46245 21.8212 5.65218 21.9142C5.8419 22.0072 6.04536 22.0552 6.2509 22.0555C6.45643 22.0559 6.66001 22.0085 6.84995 21.9162C7.0399 21.8238 7.21248 21.6883 7.35782 21.5174C7.50315 21.3464 7.61838 21.1434 7.6969 20.92C7.77543 20.6966 7.8157 20.4572 7.81541 20.2155C7.81513 19.9738 7.77429 19.7345 7.69524 19.5113C7.61619 19.2882 7.50048 19.0856 7.35474 18.9151L5.33448 16.5391Z" fill="white"/>
<path d="M23.4375 2.95411e-07H10.9375C10.7323 -0.000136595 10.529 0.0473029 10.3394 0.139606C10.1498 0.23191 9.9775 0.367267 9.83239 0.537938C9.68727 0.70861 9.57218 0.911248 9.4937 1.13427C9.41522 1.35729 9.37488 1.59631 9.375 1.83768V5.51303C9.375 6.00041 9.53962 6.46783 9.83265 6.81247C10.1257 7.1571 10.5231 7.35071 10.9375 7.35071C11.3519 7.35071 11.7493 7.1571 12.0424 6.81247C12.3354 6.46783 12.5 6.00041 12.5 5.51303V3.67535H21.875V25.7275H12.5V23.8898C12.5 23.4024 12.3354 22.935 12.0424 22.5904C11.7493 22.2457 11.3519 22.0521 10.9375 22.0521C10.5231 22.0521 10.1257 22.2457 9.83265 22.5904C9.53962 22.935 9.375 23.4024 9.375 23.8898V27.5652C9.37488 27.8065 9.41522 28.0455 9.4937 28.2686C9.57218 28.4916 9.68727 28.6942 9.83239 28.8649C9.9775 29.0356 10.1498 29.1709 10.3394 29.2632C10.529 29.3555 10.7323 29.403 10.9375 29.4028H23.4375C23.6427 29.403 23.846 29.3555 24.0356 29.2632C24.2252 29.1709 24.3975 29.0356 24.5426 28.8649C24.6877 28.6942 24.8028 28.4916 24.8813 28.2686C24.9598 28.0455 25.0001 27.8065 25 27.5652V1.83768C25.0001 1.59631 24.9598 1.35729 24.8813 1.13427C24.8028 0.911248 24.6877 0.70861 24.5426 0.537938C24.3975 0.367267 24.2252 0.23191 24.0356 0.139606C23.846 0.0473029 23.6427 -0.000136595 23.4375 2.95411e-07Z" fill="white"/>
</svg>
