<svg xmlns="http://www.w3.org/2000/svg" viewBox="0 0 110 110"><defs><style>.cls-1{fill:#f5cf57;}.cls-2{fill:#fff;}</style></defs><title>Recurso 6</title><g id="Capa_2" data-name="Capa 2"><g id="Capa_1-2" data-name="Capa 1"><rect class="cls-1" width="110" height="110" rx="18.86"/><path class="cls-2" d="M43.77,67.18a23.74,23.74,0,0,1-10.49-2.41,20.73,20.73,0,0,1-9.6,2.41.76.76,0,0,1-.7-.46.75.75,0,0,1,.15-.83,27.77,27.77,0,0,0,4-5.79,15.88,15.88,0,0,1-4.17-10.57c0-9.74,9.33-17.64,20.85-17.64s20.86,7.9,20.86,17.64S55.29,67.18,43.77,67.18Zm8-22.71a5.32,5.32,0,0,0-5.37-5.36h-4a5.33,5.33,0,0,0-5.37,5.36,1.84,1.84,0,0,0,3.68,0,1.71,1.71,0,0,1,1.69-1.69h4a1.7,1.7,0,0,1,1.68,1.69,1.67,1.67,0,0,1-.84,1.46L42.9,48.54A1.86,1.86,0,0,0,42,50.15v1.23a1.84,1.84,0,0,0,3.68,0v-.15l3.44-2.15A5.33,5.33,0,0,0,51.79,44.47ZM46.27,58.31a2.45,2.45,0,1,0-2.45,2.45A2.42,2.42,0,0,0,46.27,58.31Zm40.6,23.61a.79.79,0,0,1,.15.84.76.76,0,0,1-.71.46A20.76,20.76,0,0,1,77.14,81a20.53,20.53,0,0,1-9.3,2.2c-9.12,0-16.58-5.7-18.66-13.38C59.85,67.7,67.84,59.42,67.84,49.53c0-.54,0-1.07-.1-1.6h.1c10.62,0,19.25,7.9,19.25,17.65a16.71,16.71,0,0,1-4,10.8A28.29,28.29,0,0,0,86.87,81.92Zm-9.63-21a2,2,0,0,0-2.83.06l-7,7.34-2.56-2.56A2,2,0,0,0,62,68.6l4,4a2.1,2.1,0,0,0,1.44.59,2,2,0,0,0,1.43-.62l8.42-8.83A2,2,0,0,0,77.24,60.92Z"/></g></g></svg>