<svg id="Capa_1" data-name="Capa 1" xmlns="http://www.w3.org/2000/svg" viewBox="0 0 120 120"><defs><style>.cls-1{fill:#e95f7b;}</style></defs><title>Mesa de trabajo 1 copia 52</title><path class="cls-1" d="M95,96a5.42,5.42,0,0,1-5.42,5.43H30.42A5.42,5.42,0,0,1,25,96,27.08,27.08,0,0,1,52.08,69H67.92A27.07,27.07,0,0,1,95,96ZM31.25,44V39a7.5,7.5,0,0,1,7.5-7.5,7.37,7.37,0,0,1,3.53.9,19.85,19.85,0,0,1,35.44,0,7.37,7.37,0,0,1,3.53-.9,7.5,7.5,0,0,1,7.5,7.5v5a7.5,7.5,0,0,1-7.5,7.5A7.35,7.35,0,0,1,78.67,51a19.91,19.91,0,0,1-37.34,0,7.35,7.35,0,0,1-2.58.49A7.5,7.5,0,0,1,31.25,44ZM47.5,44a12.5,12.5,0,0,0,25,0v-2.5A11.48,11.48,0,0,0,72,38.28a9.24,9.24,0,0,1-3.29.67A9.94,9.94,0,0,1,60,33.69,10,10,0,0,1,51.25,39,9.51,9.51,0,0,1,48,38.28a12.32,12.32,0,0,0-.46,3.17Z"/></svg>