<svg width="40" height="39" viewBox="0 0 40 39" fill="none" xmlns="http://www.w3.org/2000/svg">
<path d="M21.84 27.8497C21.7962 27.7222 21.7357 27.6012 21.66 27.4897C21.5862 27.3849 21.506 27.2847 21.42 27.1897L21.12 26.9497L20.76 26.7697C20.6409 26.7088 20.5125 26.6682 20.38 26.6497C20.0587 26.5853 19.7265 26.6009 19.4126 26.6951C19.0988 26.7892 18.8128 26.9591 18.58 27.1897L18.34 27.4897C18.2643 27.6012 18.2038 27.7222 18.16 27.8497C18.1023 27.963 18.0619 28.0844 18.04 28.2097C18.0302 28.3428 18.0302 28.4765 18.04 28.6097C18.0432 28.871 18.0975 29.1292 18.2 29.3697C18.3013 29.612 18.4433 29.8353 18.62 30.0297C18.899 30.3105 19.2551 30.5023 19.6432 30.5806C20.0313 30.6589 20.4339 30.6203 20.8 30.4697C21.039 30.3537 21.261 30.2057 21.46 30.0297C21.636 29.8307 21.784 29.6087 21.9 29.3697C21.982 29.1251 22.016 28.8671 22 28.6097C22.0098 28.4765 22.0098 28.3428 22 28.2097C21.9656 28.0821 21.9116 27.9607 21.84 27.8497ZM20 16.6097C19.4696 16.6097 18.9609 16.8204 18.5858 17.1954C18.2107 17.5705 18 18.0792 18 18.6097V22.6097C18 23.1401 18.2107 23.6488 18.5858 24.0239C18.9609 24.3989 19.4696 24.6097 20 24.6097C20.5304 24.6097 21.0391 24.3989 21.4142 24.0239C21.7893 23.6488 22 23.1401 22 22.6097V18.6097C22 18.0792 21.7893 17.5705 21.4142 17.1954C21.0391 16.8204 20.5304 16.6097 20 16.6097ZM34 6.60966H21.44L20.8 4.60966C20.3851 3.43612 19.6155 2.42067 18.5978 1.70399C17.5801 0.987301 16.3647 0.604865 15.12 0.609664H6C4.4087 0.609664 2.88258 1.2418 1.75736 2.36702C0.632141 3.49224 0 5.01836 0 6.60966V32.6097C0 34.201 0.632141 35.7271 1.75736 36.8523C2.88258 37.9775 4.4087 38.6097 6 38.6097H34C35.5913 38.6097 37.1174 37.9775 38.2426 36.8523C39.3679 35.7271 40 34.201 40 32.6097V12.6097C40 11.0184 39.3679 9.49224 38.2426 8.36702C37.1174 7.24181 35.5913 6.60966 34 6.60966ZM36 32.6097C36 33.1401 35.7893 33.6488 35.4142 34.0239C35.0391 34.399 34.5304 34.6097 34 34.6097H6C5.46957 34.6097 4.96086 34.399 4.58579 34.0239C4.21071 33.6488 4 33.1401 4 32.6097V6.60966C4 6.07923 4.21071 5.57052 4.58579 5.19545C4.96086 4.82038 5.46957 4.60966 6 4.60966H15.12C15.5393 4.60858 15.9483 4.7393 16.2893 4.98335C16.6302 5.22739 16.8858 5.57242 17.02 5.96966L18.1 9.24966C18.2342 9.64691 18.4898 9.99193 18.8307 10.236C19.1717 10.48 19.5807 10.6107 20 10.6097H34C34.5304 10.6097 35.0391 10.8204 35.4142 11.1955C35.7893 11.5705 36 12.0792 36 12.6097V32.6097Z" fill="white"/>
</svg>
