<svg id="Capa_1" data-name="Capa 1" xmlns="http://www.w3.org/2000/svg" viewBox="0 0 120 120"><defs><style>.cls-1{fill:#e95f7b;}.cls-2{fill:#fff;}</style></defs><title>Mesa de trabajo 1 copia 54</title><rect class="cls-1" x="5" y="5" width="110" height="110" rx="14"/><path class="cls-2" d="M95.36,49.75a2.72,2.72,0,0,1-1.78,2.56L62.35,63.49a7,7,0,0,1-4.69,0L36.6,56a11.75,11.75,0,0,0-2.76,5.2,3.45,3.45,0,0,1,1.41,2.75,3.63,3.63,0,0,1-1.32,2.69l2.74,16.46a1.77,1.77,0,0,1-1.74,2.06H28.5a1.78,1.78,0,0,1-1.75-2.06L29.5,66.59a3.47,3.47,0,0,1-1.32-2.69,3.55,3.55,0,0,1,2.16-3.26,15.19,15.19,0,0,1,2.71-6l-6.63-2.37a2.72,2.72,0,0,1,0-5.11L57.57,36a7,7,0,0,1,4.68,0L93.49,47.2A2.67,2.67,0,0,1,95.36,49.75ZM79.58,61.07l1.63,15.79c0,4.56-9.6,8.25-21.21,8.25-11.81,0-21.21-3.69-21.21-8.25l1.63-15.78,16,5.74a10.42,10.42,0,0,0,3.54.61,9.51,9.51,0,0,0,3.44-.62Z"/></svg>