<svg xmlns="http://www.w3.org/2000/svg" viewBox="0 0 51.33 43.89"><defs><style>.cls-1{fill:#c9c9c9;}</style></defs><title>Recurso 13</title><g id="Capa_2" data-name="Capa 2"><g id="Capa_1-2" data-name="Capa 1"><path class="cls-1" d="M25.57,5.4l1.21-1.2A14.54,14.54,0,0,1,39.36.2a14.32,14.32,0,0,1,12,14.13v.58a15,15,0,0,1-4.77,11L28.44,42.8a4.08,4.08,0,0,1-5.55,0L4.77,25.89A15,15,0,0,1,0,14.91v-.58A14.33,14.33,0,0,1,24.46,4.2Zm0,4.54L22.2,6.46A11.2,11.2,0,0,0,3.12,14.33v.58A11.88,11.88,0,0,0,7,23.54L25.07,40.46a.83.83,0,0,0,.5.23,1,1,0,0,0,.69-.23L44.37,23.54a11.8,11.8,0,0,0,3.75-8.63v-.58a11.13,11.13,0,0,0-19-7.87Z"/></g></g></svg>