<?xml version="1.0" encoding="utf-8"?>
<!-- Generator: Adobe Illustrator 23.1.1, SVG Export Plug-In . SVG Version: 6.00 Build 0)  -->
<svg version="1.1" id="Capa_1" xmlns="http://www.w3.org/2000/svg" xmlns:xlink="http://www.w3.org/1999/xlink" x="0px" y="0px"
	 viewBox="0 0 120 120" style="enable-background:new 0 0 120 120;" xml:space="preserve">
<style type="text/css">
	.st0{fill:none;stroke:#7468E5;stroke-width:2;stroke-miterlimit:10;}
	.st1{enable-background:new    ;}
	.st2{fill:#7468E5;}
</style>
<title>CiviConecta - iconos</title>
<circle class="st0" cx="60" cy="60" r="45"/>
<g class="st1">
	<path class="st2" d="M78.4,67.7c-0.1,3-0.8,5.6-3,7.8c-2.2,2.2-4.8,2.9-7.8,3c-3.1,0.2-12.2,0.2-15.3,0c-3-0.1-5.6-0.8-7.8-3
		c-2.2-2.2-2.9-4.8-3-7.8c-0.2-3.1-0.2-12.2,0-15.3c0.1-3,0.8-5.6,3-7.8c2.2-2.2,4.8-2.8,7.8-3c3.1-0.2,12.2-0.2,15.3,0
		c3,0.1,5.6,0.8,7.8,3c2.2,2.2,2.9,4.8,3,7.8C78.6,55.5,78.6,64.6,78.4,67.7z M75.2,60c0-2.7,0.2-8.5-0.7-10.9
		c-0.7-1.6-1.9-2.9-3.5-3.5c-2.4-1-8.2-0.7-10.9-0.7c-2.7,0-8.5-0.2-10.9,0.7c-1.6,0.7-2.9,1.9-3.5,3.5c-1,2.4-0.7,8.2-0.7,10.9
		c0,2.7-0.2,8.5,0.7,10.9c0.7,1.6,1.9,2.9,3.5,3.5c2.4,1,8.2,0.7,10.9,0.7c2.7,0,8.5,0.2,10.9-0.7c1.6-0.7,2.9-1.9,3.5-3.5
		C75.4,68.5,75.2,62.7,75.2,60z M69.5,60c0,5.3-4.2,9.5-9.5,9.5c-5.3,0-9.5-4.2-9.5-9.5c0-5.3,4.2-9.5,9.5-9.5
		C65.3,50.5,69.5,54.8,69.5,60z M66.2,60c0-3.4-2.8-6.2-6.2-6.2c-3.4,0-6.2,2.8-6.2,6.2c0,3.4,2.8,6.2,6.2,6.2
		C63.4,66.2,66.2,63.4,66.2,60z M69.9,52.4c-1.2,0-2.2-1-2.2-2.2c0-1.2,1-2.2,2.2-2.2c1.2,0,2.2,1,2.2,2.2
		C72.1,51.4,71.1,52.4,69.9,52.4z"/>
</g>
</svg>
