<?xml version="1.0" encoding="utf-8"?>
<!-- Generator: Adobe Illustrator 23.1.1, SVG Export Plug-In . SVG Version: 6.00 Build 0)  -->
<svg version="1.1" id="Capa_1" xmlns="http://www.w3.org/2000/svg" xmlns:xlink="http://www.w3.org/1999/xlink" x="0px" y="0px"
	 viewBox="0 0 120 120" style="enable-background:new 0 0 120 120;" xml:space="preserve">
<style type="text/css">
	.st0{fill:none;stroke:#7468E5;stroke-width:2;stroke-miterlimit:10;}
	.st1{enable-background:new    ;}
	.st2{fill:#7468E5;}
</style>
<title>CiviConecta - iconos</title>
<circle class="st0" cx="60" cy="60" r="45"/>
<g class="st1">
	<path class="st2" d="M41.5,43.3c0-2.5,2-4.4,4.4-4.4c2.5,0,4.4,2,4.4,4.4s-2,4.5-4.4,4.5C43.5,47.8,41.5,45.8,41.5,43.3z
		 M42.1,75.9V51.2h7.7v24.7H42.1z M70.9,75.9v-12c0-2.9-0.1-6.5-4-6.5c-4,0-4.6,3.1-4.6,6.3v12.2h-7.7V51.2H62v3.4h0.1
		c1-1.9,3.5-4,7.3-4c7.8,0,9.2,5.1,9.2,11.8v13.6h0H70.9z"/>
</g>
</svg>
