<?xml version="1.0" encoding="utf-8"?>
<!-- Generator: Adobe Illustrator 23.1.1, SVG Export Plug-In . SVG Version: 6.00 Build 0)  -->
<svg version="1.1" id="Capa_1" xmlns="http://www.w3.org/2000/svg" xmlns:xlink="http://www.w3.org/1999/xlink" x="0px" y="0px"
	 viewBox="0 0 136.7 60" style="enable-background:new 0 0 136.7 60;" xml:space="preserve">
<style type="text/css">
	.st0{fill:#FFFFFF;}
</style>
<title>Logo - Civiconecta</title>
<g>
	<g id="Diseño">
		<path class="st0" d="M12.2,30c-2.1,0.1-4.1-0.4-5.9-1.3c-1.6-0.9-2.9-2.2-3.8-3.7c-0.9-1.8-1.4-3.7-1.3-5.7c0-1.5,0.2-3,0.8-4.4
			c0.5-1.3,1.2-2.4,2.2-3.4c1-1,2.2-1.7,3.5-2.2c1.5-0.5,3.1-0.8,4.6-0.8c0.9,0,1.9,0.1,2.8,0.3c0.9,0.2,1.8,0.5,2.6,0.9
			c0.5,0.2,0.9,0.6,1.2,1.1c0.2,0.4,0.3,0.9,0.2,1.4c-0.1,0.5-0.2,0.9-0.5,1.3c-0.3,0.4-0.6,0.6-1.1,0.8c-0.5,0.1-1,0.1-1.4-0.2
			c-0.5-0.3-1.1-0.5-1.7-0.6c-0.6-0.1-1.2-0.2-1.8-0.2c-1,0-2.1,0.2-3,0.7c-0.8,0.5-1.5,1.2-1.8,2c-0.4,1-0.7,2.1-0.6,3.2
			c0,1.1,0.2,2.2,0.6,3.3c0.4,0.8,1,1.5,1.8,2c0.9,0.5,2,0.7,3,0.7c0.6,0,1.1-0.1,1.6-0.2c0.6-0.1,1.2-0.3,1.7-0.6
			c0.5-0.2,1-0.3,1.6-0.2c0.4,0.1,0.9,0.3,1.1,0.7c0.3,0.4,0.5,0.8,0.6,1.2c0.1,0.5,0,0.9-0.2,1.4c-0.2,0.5-0.6,0.9-1.1,1.1
			c-0.8,0.5-1.7,0.8-2.6,1C14.2,29.8,13.2,30,12.2,30z"/>
		<path class="st0" d="M31.8,29.9c-0.7,0-1.5-0.2-2-0.7c-0.5-0.6-0.8-1.3-0.7-2.1V11.3c0-0.8,0.2-1.5,0.7-2.1c0.5-0.5,1.3-0.8,2-0.7
			c0.7,0,1.5,0.2,2,0.7c0.5,0.6,0.8,1.3,0.7,2.1v15.8c0,0.8-0.2,1.5-0.7,2.1C33.3,29.7,32.6,29.9,31.8,29.9z"/>
		<path class="st0" d="M54.5,29.9c-0.6,0-1.2-0.1-1.8-0.5c-0.5-0.4-0.9-0.9-1.2-1.5l-7.1-15.7c-0.3-0.6-0.4-1.2-0.3-1.9
			c0.1-0.5,0.4-1,0.9-1.3c0.5-0.3,1-0.5,1.6-0.5c0.7,0,1.3,0.2,1.8,0.6c0.4,0.4,0.8,1,1,1.6l6,13.9h-1.7l6-13.9
			c0.2-0.6,0.6-1.1,1.1-1.6c0.5-0.4,1.1-0.6,1.8-0.5c0.5,0,1.1,0.1,1.5,0.5c0.4,0.3,0.7,0.8,0.8,1.3c0.1,0.6,0,1.3-0.3,1.9
			l-7.1,15.7c-0.2,0.6-0.6,1.1-1.1,1.5C55.8,29.7,55.2,29.9,54.5,29.9z"/>
		<path class="st0" d="M77.2,29.9c-0.7,0-1.5-0.2-2-0.7c-0.5-0.6-0.8-1.3-0.7-2.1V11.3c0-0.8,0.2-1.5,0.7-2.1c0.5-0.5,1.3-0.8,2-0.7
			c0.7,0,1.5,0.2,2,0.7c0.5,0.6,0.8,1.3,0.7,2.1v15.8c0,0.8-0.2,1.5-0.7,2.1C78.7,29.7,78,29.9,77.2,29.9z"/>
		<path class="st0" d="M9.9,60c-1.9,0.1-3.7-0.4-5.3-1.3c-1.5-0.9-2.7-2.2-3.4-3.7C0.4,53.2,0,51.3,0,49.3c0-1.5,0.2-3,0.7-4.4
			c0.4-1.2,1.1-2.4,1.9-3.3c0.9-0.9,1.9-1.7,3.1-2.1c1.3-0.5,2.7-0.8,4.2-0.7c1.2,0,2.3,0.2,3.4,0.5c1,0.3,2,0.8,2.8,1.4
			c0.3,0.2,0.5,0.4,0.6,0.7c0.1,0.3,0.1,0.5,0,0.8c-0.1,0.2-0.2,0.4-0.4,0.6c-0.2,0.2-0.4,0.3-0.7,0.3c-0.3,0-0.6-0.1-0.9-0.3
			c-0.7-0.5-1.4-0.9-2.2-1.2c-0.8-0.2-1.7-0.4-2.6-0.4c-1.3,0-2.7,0.3-3.8,1c-1.1,0.6-1.9,1.6-2.4,2.8c-0.6,1.4-0.9,2.9-0.8,4.4
			c0,1.5,0.2,3,0.8,4.4C4.3,55,5.1,56,6.2,56.6c1.2,0.7,2.5,1,3.8,1c0.9,0,1.8-0.1,2.6-0.4c0.8-0.3,1.6-0.7,2.3-1.2
			c0.2-0.2,0.5-0.3,0.9-0.3c0.2,0,0.5,0.1,0.7,0.2c0.2,0.2,0.3,0.4,0.4,0.6c0.1,0.2,0.1,0.5,0,0.8c-0.1,0.3-0.3,0.5-0.5,0.7
			c-0.8,0.7-1.8,1.2-2.9,1.5C12.3,59.9,11.1,60,9.9,60z"/>
		<path class="st0" d="M29.1,60c-1.8,0-3.5-0.4-5.1-1.3c-1.4-0.9-2.6-2.2-3.3-3.7c-0.8-1.8-1.2-3.7-1.2-5.6c0-1.5,0.2-3,0.7-4.4
			c0.4-1.2,1.1-2.4,1.9-3.3c0.8-0.9,1.9-1.7,3-2.1c1.3-0.5,2.6-0.8,4-0.7c1.8-0.1,3.6,0.4,5.1,1.3c1.4,0.9,2.6,2.2,3.3,3.7
			c0.8,1.8,1.2,3.7,1.2,5.6c0,1.5-0.2,3-0.7,4.4c-0.4,1.2-1.1,2.4-1.9,3.4c-0.8,0.9-1.9,1.7-3,2.1C31.9,59.8,30.5,60,29.1,60z
			 M29.1,57.6c1.3,0,2.5-0.3,3.6-1c1-0.7,1.8-1.7,2.3-2.8c0.6-1.4,0.8-2.9,0.8-4.5c0.1-2.2-0.5-4.3-1.8-6.1c-1.2-1.5-3.1-2.3-5-2.2
			c-1.3,0-2.5,0.3-3.6,1c-1,0.7-1.8,1.6-2.3,2.8c-0.6,1.4-0.8,2.9-0.8,4.5c-0.1,2.2,0.5,4.3,1.8,6.1C25.4,56.9,27.2,57.7,29.1,57.6z
			"/>
		<path class="st0" d="M44.5,59.9c-0.3,0-0.7-0.1-0.9-0.3c-0.2-0.3-0.4-0.6-0.3-1V40.2c0-0.4,0.1-0.7,0.3-1c0.2-0.2,0.5-0.4,0.8-0.4
			c0.3,0,0.5,0,0.8,0.2c0.2,0.2,0.4,0.4,0.6,0.6l12.5,16.5h-0.7v-16c0-0.4,0.1-0.7,0.3-1c0.3-0.2,0.6-0.4,1-0.3
			c0.3,0,0.7,0.1,0.9,0.3c0.2,0.3,0.4,0.6,0.3,1v18.5c0,0.4-0.1,0.7-0.3,1C59.6,59.8,59.3,60,59,60c-0.3,0-0.5-0.1-0.8-0.2
			c-0.2-0.2-0.5-0.4-0.6-0.6L45.1,42.6h0.7v16c0,0.4-0.1,0.7-0.3,1C45.2,59.8,44.9,60,44.5,59.9z"/>
		<path class="st0" d="M66.9,59.7c-0.7,0.1-1.4-0.5-1.5-1.2c0-0.1,0-0.2,0-0.3V40.5c0-0.4,0.1-0.8,0.4-1.1c0.3-0.3,0.7-0.4,1.1-0.4
			h10.8c0.3,0,0.6,0.1,0.9,0.3c0.2,0.2,0.3,0.5,0.3,0.8c0,0.3-0.1,0.6-0.3,0.8c-0.2,0.2-0.6,0.3-0.9,0.3H68v6.9h9
			c0.3,0,0.6,0.1,0.9,0.3c0.2,0.2,0.3,0.5,0.3,0.8c0,0.3-0.1,0.6-0.3,0.8c-0.2,0.2-0.5,0.3-0.9,0.3h-9v7.2h9.7
			c0.3,0,0.6,0.1,0.9,0.3c0.2,0.2,0.3,0.5,0.3,0.8c0,0.3-0.1,0.6-0.3,0.8c-0.2,0.2-0.6,0.3-0.9,0.3L66.9,59.7z"/>
		<path class="st0" d="M92,60c-1.9,0.1-3.7-0.4-5.3-1.3c-1.5-0.9-2.7-2.2-3.4-3.7c-0.8-1.8-1.2-3.7-1.2-5.7c0-1.5,0.2-3,0.7-4.4
			c0.4-1.2,1.1-2.4,2-3.3c0.9-0.9,1.9-1.7,3.1-2.1c1.3-0.5,2.7-0.7,4.2-0.7c1.2,0,2.3,0.2,3.4,0.5c1,0.3,2,0.8,2.8,1.4
			c0.3,0.2,0.5,0.4,0.6,0.7c0.1,0.3,0.1,0.5,0,0.8c-0.1,0.2-0.2,0.4-0.4,0.6C98.3,42.9,98,43,97.8,43c-0.3,0-0.6-0.1-0.9-0.3
			c-0.7-0.5-1.4-0.9-2.3-1.2c-0.8-0.3-1.7-0.4-2.6-0.4c-1.3,0-2.7,0.3-3.8,1c-1.1,0.6-1.9,1.6-2.4,2.8c-0.6,1.4-0.8,2.9-0.8,4.4
			c0,1.5,0.2,3,0.8,4.4c0.5,1.2,1.3,2.1,2.4,2.8c1.2,0.7,2.5,1,3.8,1c0.9,0,1.8-0.1,2.6-0.4c0.8-0.2,1.6-0.6,2.3-1.2
			c0.2-0.2,0.6-0.3,0.9-0.3c0.2,0,0.5,0.1,0.7,0.2c0.2,0.2,0.3,0.4,0.4,0.6c0.1,0.2,0.1,0.5,0,0.8c-0.1,0.3-0.3,0.5-0.5,0.7
			c-0.8,0.7-1.8,1.2-2.9,1.5C94.4,59.9,93.2,60,92,60z"/>
		<path class="st0" d="M109.2,59.9c-0.4,0-0.7-0.1-1-0.4c-0.2-0.3-0.4-0.6-0.3-1V41.3h-6.4c-0.3,0-0.6-0.1-0.9-0.3
			c-0.2-0.2-0.3-0.5-0.3-0.9c0-0.3,0.1-0.6,0.3-0.9c0.2-0.2,0.6-0.3,0.9-0.3H117c0.3,0,0.6,0.1,0.9,0.3c0.2,0.2,0.3,0.5,0.3,0.9
			c0,0.3-0.1,0.6-0.3,0.9c-0.2,0.2-0.6,0.3-0.9,0.3h-6.4v17.2c0,0.4-0.1,0.7-0.3,1C109.9,59.8,109.6,60,109.2,59.9z"/>
		<path class="st0" d="M118.3,59.9c-0.3,0-0.6-0.1-0.8-0.2c-0.2-0.2-0.3-0.4-0.4-0.7c0-0.3,0-0.6,0.2-0.9l8-18.2
			c0.1-0.4,0.4-0.7,0.7-0.9c0.3-0.2,0.6-0.3,0.9-0.3c0.3,0,0.6,0.1,0.9,0.3c0.3,0.2,0.5,0.5,0.7,0.9l8,18.2c0.1,0.3,0.2,0.6,0.2,0.9
			c0,0.3-0.1,0.5-0.3,0.7c-0.2,0.2-0.5,0.2-0.8,0.2c-0.3,0-0.7-0.1-0.9-0.3c-0.3-0.2-0.5-0.6-0.6-0.9l-2.1-4.9l1.3,0.7h-12.6
			l1.3-0.7l-2.1,4.9c-0.1,0.4-0.3,0.7-0.6,0.9C118.9,59.8,118.6,59.9,118.3,59.9z M126.8,42.1l-4.6,10.9l-0.7-0.6h10.6l-0.7,0.6
			L126.8,42.1L126.8,42.1z"/>
		<path class="st0" d="M127.9,3c-1.9-1.9-4.4-3-7.1-3l0,0c-2.7,0-5.3,1.1-7.1,3L111,5.6L108.5,3c-3.9-3.9-10.3-4-14.2,0c0,0,0,0,0,0
			c-3.9,4-3.9,10.4,0,14.4l4.4,4.5l1.8,1.8L110.6,34l0,0c0.1,0.1,0.3,0.2,0.4,0.2c0.2,0,0.3-0.1,0.4-0.2l4.8-4.8l0.1-0.1l0.1-0.1
			c0,0,0.2-0.2,0.4-0.4l2.8-2.9l5.7-5.8l2.5-2.5C131.7,13.3,131.7,7,127.9,3z M97.2,18.6l-2.1-2.1c-3.5-3.5-3.5-9.1,0-12.6
			c3.3-3.4,8.8-3.5,12.2-0.2l0,0c-0.7,0-1.5,0.2-2.1,0.6c-1,0.5-1.7,1.4-2,2.5l0,0l0,0c-0.3,0-0.5,0.1-0.8,0.2
			c-1.3,0.5-2.3,1.5-2.9,2.8c-0.8,1.3-0.9,2.9-0.3,4.3l0,0l0,0C97.7,15.1,97,16.8,97.2,18.6L97.2,18.6z M110.4,32l-2.4-2.4l-0.9-1
			c-0.7-0.8-0.7-2,0.1-2.7c0.3-0.2,0.3-0.6,0-0.9c-0.2-0.3-0.6-0.3-0.9,0c-0.5,0.5-0.8,1.1-0.9,1.7v0.3l-0.5-0.5l-0.2-0.2l0,0
			l-2.6-2.7l0,0L99.5,21l0,0c-0.5-0.6-0.8-1.3-1-2c-0.5-2,0.7-4.1,2.7-4.6c0,0,0,0,0,0c0.2-0.1,0.5-0.1,0.7-0.1
			c0.6,0,1.1,0.2,1.6,0.5l0,0l0,0c-0.2,0.5-0.3,1-0.2,1.5c0,0.4,0.3,0.6,0.6,0.6c0,0,0,0,0.1,0l0,0c0.2,0,0.3-0.1,0.4-0.2
			c0.1-0.1,0.2-0.3,0.1-0.5c-0.1-0.9,0.5-1.7,1.4-1.8c0,0,0.1,0,0.1,0c0.3-0.1,0.6-0.4,0.5-0.7c-0.1-0.3-0.3-0.5-0.6-0.5h-0.1
			c-0.5,0.1-1,0.3-1.4,0.6l0,0l0,0c-0.7-0.5-1.6-0.8-2.4-0.8c-0.3,0-0.7,0-1,0.1c-0.2,0-0.4,0.1-0.5,0.2l0,0l0,0
			c-0.3-1-0.2-2.1,0.3-3.1c0.4-1,1.2-1.7,2.2-2.1c0.2-0.1,0.4-0.1,0.6-0.1c0.2,0,0.5,0,0.7,0.1c0.6,0.3,1,1,1,1.7
			c0,0.3,0.3,0.6,0.6,0.6h0.1c0.4,0,0.6-0.3,0.6-0.7c-0.1-1.2-0.8-2.2-1.9-2.7h-0.1h-0.1l0,0l0,0l0,0c0.2-0.6,0.6-1.1,1.1-1.4
			c1.4-0.9,3.3-0.5,4.3,0.9c0.3,0.5,0.5,1,0.5,1.5v7.6c0,1.1-0.9,1.9-2,1.9c0,0,0,0,0,0c-0.4,0-0.6,0.3-0.6,0.6
			c0,0.4,0.3,0.6,0.6,0.6c0.7,0,1.3-0.2,1.9-0.6l0.1,0L110.4,32z M123.5,19c-0.2,0.6-0.4,1.3-0.8,1.8l-0.1,0.1l0,0l-0.3,0.2l0,0
			l-0.5,0.5c-0.1,0.1-0.3,0.2-0.4,0.4l-3.4,3.5l-0.4,0.4c-0.4,0.4-0.9,0.5-1.4,0.5c-0.5,0-1-0.2-1.4-0.6c-0.2-0.3-0.6-0.3-0.9,0
			c-0.3,0.2-0.3,0.6,0,0.9c0.5,0.5,1.1,0.8,1.7,0.9h0.3l-0.7,0.7l0,0l-0.1,0.1c-0.1,0.1-2.4,2.4-3.6,3.6V21.7c0-1.1,0.9-2,1.9-2
			c0,0,0,0,0.1,0c0.4,0,0.7-0.2,0.7-0.6c0-0.4-0.2-0.7-0.6-0.7c-0.1,0-0.1,0-0.2,0c-0.7,0-1.3,0.2-1.9,0.6l-0.1,0.1V8
			c0-1.7,1.4-3.1,3.1-3.1c0.8,0,1.6,0.3,2.2,0.9c0.3,0.3,0.5,0.6,0.7,1l0,0l0,0l0,0h-0.1c-0.6,0.3-1.1,0.9-1.4,1.5v0.1l0,0
			c-0.4-0.2-0.8-0.3-1.2-0.3l0,0c-0.3,0-0.6,0.3-0.6,0.6c0,0.4,0.3,0.7,0.6,0.7c0,0,0,0,0,0c0.9,0,1.5,0.8,1.5,1.6
			c0,0.2,0.1,0.3,0.2,0.5c0.1,0.1,0.3,0.2,0.4,0.2l0,0c0.3,0,0.6-0.3,0.6-0.6c0-0.6-0.1-1.2-0.4-1.6l0,0c0.1-0.6,0.4-1.1,0.9-1.4
			c0.6-0.2,1.2-0.2,1.7,0.2c0.8,0.5,1.4,1.1,1.7,1.9c0.5,0.9,0.6,2,0.3,3.1l0,0l0,0c-0.2-0.1-0.3-0.1-0.5-0.2
			c-0.3-0.1-0.7-0.1-1-0.1c-1.1,0-2.1,0.4-2.9,1.2c-0.2,0.2-0.3,0.6,0,0.9c0,0,0,0,0,0c0.2,0.2,0.7,0.2,0.9,0c0.5-0.5,1.3-0.8,2-0.8
			c0.2,0,0.5,0,0.7,0.1c1,0.2,1.8,0.9,2.3,1.7C123.9,16.9,123.9,18,123.5,19z M127,16.5l-2.1,2.1c0.1-0.7,0-1.5-0.2-2.2
			c-0.3-1-1-1.8-1.8-2.4l0,0l0,0c0.5-1.4,0.4-2.9-0.3-4.3c-0.5-1-1.3-1.9-2.2-2.5c-0.4-0.3-0.9-0.4-1.4-0.5l0,0l0,0
			c-0.6-1.8-2.3-3-4.1-3h-0.1c1.6-1.5,3.8-2.4,6-2.4h0.2c2.3,0,4.5,0.9,6.1,2.5C130.5,7.3,130.5,13,127,16.5z"/>
	</g>
</g>
</svg>
