<svg width="16" height="18" viewBox="0 0 16 18" fill="none" xmlns="http://www.w3.org/2000/svg">
<path d="M14.3745 0H3.3585C2.46235 0 1.72539 0.718065 1.72539 1.6142V3.09763H0.666657C0.298462 3.09763 0 3.39539 0 3.76357C0 4.13176 0.298462 4.42951 0.666657 4.42951H1.72539V7.93074H0.666657C0.298462 7.93074 0 8.22849 0 8.59668C0 8.96487 0.298462 9.26262 0.666657 9.26262H1.72539V12.7235H0.666657C0.298462 12.7235 0 13.0263 0 13.3945C0 13.7627 0.298462 14.0655 0.666657 14.0655H1.72539V15.5635C1.72539 16.4596 2.46235 17.1934 3.3585 17.1934H9.83314C10.0099 17.1934 10.1795 17.1208 10.3045 16.9958L15.8009 11.4947C15.926 11.3697 15.9927 11.1989 15.9927 11.0221V1.61421C15.9927 0.718065 15.2706 0 14.3745 0ZM3.05727 15.5635V14.0655H4.19992C4.56812 14.0655 4.86658 13.7627 4.86658 13.3945C4.86658 13.0263 4.56812 12.7235 4.19992 12.7235H3.05727V9.26262H4.19992C4.56812 9.26262 4.86658 8.96487 4.86658 8.59668C4.86658 8.22849 4.56812 7.93074 4.19992 7.93074H3.05727V4.42951H4.19992C4.56812 4.42951 4.86658 4.13177 4.86658 3.76357C4.86658 3.39538 4.56812 3.09763 4.19992 3.09763H3.05727V1.6142C3.05727 1.45326 3.19756 1.33188 3.3585 1.33188H14.3745C14.5354 1.33188 14.6608 1.45326 14.6608 1.6142V10.0295H10.4583C9.56222 10.0295 8.82875 10.7512 8.82875 11.6473V15.8615H3.3585C3.19756 15.8615 3.05727 15.7244 3.05727 15.5635ZM10.1606 15.2459V11.6473C10.1606 11.4864 10.2974 11.3613 10.4583 11.3613H14.0569L10.1606 15.2459Z" fill="white"/>
</svg>
