<svg id="Capa_1" data-name="Capa 1" xmlns="http://www.w3.org/2000/svg" viewBox="0 0 120 120"><defs><style>.cls-1{fill:gray;}</style></defs><title>Mesa de trabajo 1 copia 25</title><path class="cls-1" d="M60,100.12A38.75,38.75,0,1,1,98.75,61.37,38.75,38.75,0,0,1,60,100.12ZM42.83,45.39a1.88,1.88,0,0,0,.42,2.54L48.67,52a1.88,1.88,0,0,0,2.61-.33c2.79-3.54,4.7-5.59,8.95-5.59,3.19,0,7.14,2.05,7.14,5.15,0,2.34-1.93,3.54-5.08,5.31-3.68,2.06-8.54,4.62-8.54,11v.62a1.88,1.88,0,0,0,1.87,1.88h8.76a1.88,1.88,0,0,0,1.87-1.88V68c0-4.44,13-4.63,13-16.66,0-9.07-9.4-15.94-18.21-15.94C52.52,35.43,47.09,39,42.83,45.39Zm10,36A7.19,7.19,0,1,0,60,74.18,7.2,7.2,0,0,0,52.81,81.37Z"/></svg>