<svg width="16" height="16" viewBox="0 0 16 16" fill="none" xmlns="http://www.w3.org/2000/svg">
<path d="M8.00029 14.2862C7.86885 14.2862 7.73685 14.2411 7.62999 14.1502C7.4917 14.0325 4.23444 11.2358 2.87553 8.18543C2.74696 7.89742 2.87668 7.55912 3.16526 7.43112C3.4527 7.30312 3.79099 7.43226 3.91957 7.72084C4.91332 9.95235 7.10654 12.1204 7.99057 12.9382C9.55063 11.4238 12.5719 8.03971 12.5719 5.84592C12.5719 3.25269 10.5209 1.1429 8.00029 1.1429C5.47962 1.1429 3.42869 3.25269 3.42869 5.84592C3.42869 6.16136 3.17269 6.41737 2.85725 6.41737C2.54181 6.41737 2.2858 6.16136 2.2858 5.84592C2.2858 2.62238 4.84932 0 8.00029 0C11.1513 0 13.7148 2.62238 13.7148 5.84592C13.7148 9.22433 8.60373 13.9371 8.38601 14.1365C8.27687 14.2359 8.13858 14.2862 8.00029 14.2862Z" fill="#4D4D4D"/>
<path d="M8.00029 8.00029C6.73967 8.00029 5.71449 6.97511 5.71449 5.71449C5.71449 4.45387 6.73967 3.4287 8.00029 3.4287C9.2609 3.4287 10.2861 4.45387 10.2861 5.71449C10.2861 6.97511 9.2609 8.00029 8.00029 8.00029ZM8.00029 4.57159C7.36998 4.57159 6.85739 5.08418 6.85739 5.71449C6.85739 6.3448 7.36998 6.85739 8.00029 6.85739C8.6306 6.85739 9.14319 6.3448 9.14319 5.71449C9.14319 5.08418 8.6306 4.57159 8.00029 4.57159Z" fill="#D9687C"/>
<path d="M15.4291 16.0006H0.571451C0.368015 16.0006 0.179437 15.8926 0.077148 15.716C-0.0251413 15.5394 -0.0257128 15.3228 0.0754336 15.1457L2.36123 11.1455C2.51781 10.8718 2.86696 10.7758 3.14069 10.933C3.41441 11.0895 3.50984 11.4387 3.35326 11.7124L1.55606 14.8577H14.4439L12.6467 11.7124C12.4902 11.4387 12.5856 11.0895 12.8593 10.933C13.133 10.7752 13.4822 10.8718 13.6388 11.1455L15.9246 15.1457C16.0257 15.3228 16.0251 15.5394 15.9229 15.716C15.8211 15.8926 15.6326 16.0006 15.4291 16.0006Z" fill="#4D4D4D"/>
</svg>
