<svg width="18" height="16" viewBox="0 0 23 16" fill="none" xmlns="http://www.w3.org/2000/svg">
<path d="M8.07049 9.178H5.63449V11.67H3.36649V9.178H0.930492V7.036H3.36649V4.53H5.63449V7.036H8.07049V9.178Z" fill="white"/>
<path d="M17.9143 9.33333C17.8118 9.33333 17.7094 9.34792 17.6117 9.37875C17.0563 9.55417 16.4721 9.66667 15.8571 9.66667C15.2421 9.66667 14.658 9.55417 14.1022 9.37875C14.0044 9.34792 13.9024 9.33333 13.8 9.33333C11.1403 9.33333 8.98593 11.4367 9.00007 14.0258C9.00607 15.12 9.93135 16 11.0572 16H20.6571C21.7829 16 22.7082 15.12 22.7142 14.0258C22.7284 11.4367 20.574 9.33333 17.9143 9.33333ZM15.8571 8C18.1294 8 19.9714 6.20917 19.9714 4C19.9714 1.79083 18.1294 0 15.8571 0C13.5849 0 11.7429 1.79083 11.7429 4C11.7429 6.20917 13.5849 8 15.8571 8Z" fill="white"/>
</svg>

