<svg width="50" height="40" viewBox="0 0 50 40" fill="none" xmlns="http://www.w3.org/2000/svg">
<path d="M0 17.5V38.75C0 39.4406 0.559375 40 1.25 40H7.5V15H2.5C1.11953 15 0 16.1195 0 17.5ZM28.125 13.75H26.25V10.625C26.25 10.2797 25.9703 10 25.625 10H24.375C24.0297 10 23.75 10.2797 23.75 10.625V15.625C23.75 15.9703 24.0297 16.25 24.375 16.25H28.125C28.4703 16.25 28.75 15.9703 28.75 15.625V14.375C28.75 14.0297 28.4703 13.75 28.125 13.75ZM38.8867 8.75313L26.3867 0.419538C25.976 0.145969 25.4935 0 25 0C24.5065 0 24.024 0.145969 23.6133 0.419538L11.1133 8.75313C10.7709 8.98139 10.4902 9.29064 10.2959 9.65342C10.1017 10.0162 10.0001 10.4213 10 10.8328V40H20V28.75C20 28.0594 20.5594 27.5 21.25 27.5H28.75C29.4406 27.5 30 28.0594 30 28.75V40H40V10.8336C40 9.99766 39.582 9.21641 38.8867 8.75313ZM25 20C21.5484 20 18.75 17.2016 18.75 13.75C18.75 10.2984 21.5484 7.50001 25 7.50001C28.4516 7.50001 31.25 10.2984 31.25 13.75C31.25 17.2016 28.4516 20 25 20ZM47.5 15H42.5V40H48.75C49.4406 40 50 39.4406 50 38.75V17.5C50 16.1195 48.8805 15 47.5 15Z" fill="white"/>
</svg>
