<svg id="Capa_1" data-name="Capa 1" xmlns="http://www.w3.org/2000/svg" viewBox="0 0 120 120"><defs><style>.cls-1{fill:#aca4ef;}.cls-2{fill:#fff;}</style></defs><title>Mesa de trabajo 1 copia 78</title><rect class="cls-1" x="5" y="5" width="110" height="110" rx="14"/><path class="cls-2" d="M37.3,44.18a6.28,6.28,0,0,1,6.28-6.28H59.3V50.47a3.14,3.14,0,0,0,3.14,3.14H75V57.4a17.3,17.3,0,0,0-5.33,30.71,7.32,7.32,0,0,1-1,.07H43.58A6.28,6.28,0,0,1,37.3,81.9Zm25.14,6.29V37.9L75,50.47ZM65.58,74A14.15,14.15,0,1,1,79.73,88.18,14.15,14.15,0,0,1,65.58,74ZM81.3,67.66a1.57,1.57,0,1,0-3.14,0v4.72H73.44A1.63,1.63,0,0,0,71.87,74a1.52,1.52,0,0,0,1.57,1.57h4.72v4.72a1.57,1.57,0,1,0,3.14,0V75.52H86A1.52,1.52,0,0,0,87.58,74,1.63,1.63,0,0,0,86,72.38H81.3Z"/></svg>