<svg width="13" height="16" viewBox="0 0 13 16" fill="none" xmlns="http://www.w3.org/2000/svg">
<path fill-rule="evenodd" clip-rule="evenodd" d="M6.31325 0L0.769476 1.79531V5.6148H1.29031V1.96398L3.14246 2.56379C2.75227 3.15937 2.52533 3.87142 2.52533 4.63625C2.52533 6.7275 4.222 8.42417 6.31324 8.42417C8.40449 8.42417 10.1012 6.7275 10.1012 4.63625C10.1012 3.87142 9.87422 3.15937 9.48403 2.56379L11.857 1.79531L6.31325 0ZM7.92705 9.73021C8.01781 9.70259 8.1125 9.68681 8.2072 9.68681C10.6575 9.68681 12.6383 11.6794 12.6264 14.1297C12.6225 15.1674 11.7702 16 10.7325 16H1.89401C0.85628 16 0.00399853 15.1674 5.27801e-05 14.1297C-0.0117845 11.6794 1.96898 9.68681 4.41929 9.68681C4.51398 9.68681 4.60868 9.70259 4.69944 9.73021C5.20844 9.89593 5.749 10.0025 6.31324 10.0025C6.87749 10.0025 7.41411 9.89593 7.92705 9.73021Z" fill="white"/>
</svg>
