<svg width="50" height="40" viewBox="0 0 50 40" fill="none" xmlns="http://www.w3.org/2000/svg">
<path d="M12.5001 24.9999C16.6407 24.9999 20.0001 21.6406 20.0001 17.5C20.0001 13.3593 16.6407 9.99998 12.5001 9.99998C8.35946 9.99998 5.00009 13.3593 5.00009 17.5C5.00009 21.6406 8.35946 24.9999 12.5001 24.9999ZM16.2501 27.4999C16.0626 27.4999 15.8751 27.5312 15.6954 27.5859C14.6798 27.914 13.6173 28.1249 12.5001 28.1249C11.3829 28.1249 10.3126 27.914 9.30477 27.5859C9.12508 27.5312 8.93759 27.4999 8.75009 27.4999C3.89853 27.4999 -0.0233329 31.4452 0.000104503 36.2968C0.00791699 38.3515 1.69541 39.9999 3.7501 39.9999H21.2501C23.3047 39.9999 24.9922 38.3515 25.0001 36.2968C25.0235 31.4452 21.1016 27.4999 16.2501 27.4999ZM46.25 0H16.2501C14.1798 0 12.5001 1.73437 12.5001 3.87499V7.49998C14.3282 7.49998 16.0235 8.03123 17.5001 8.89061V4.99999H45V27.4999H40V22.5H30V27.4999H24.0469C25.5391 28.8046 26.6329 30.5234 27.1485 32.4999H46.25C48.3203 32.4999 50 30.7656 50 28.6249V3.87499C50 1.73437 48.3203 0 46.25 0Z" fill="white"/>
<path d="M1.52354 11.875L12.5001 8.3203V11.875" fill="white"/>
<path d="M12.5001 11.875V8.3203L23.4766 11.875" fill="white"/>
<path d="M23.4766 11.875L12.5001 15.4296V11.875" fill="white"/>
<path d="M12.5001 11.875V15.4296L1.52354 11.875" fill="white"/>
<path d="M2.55479 11.875H1.52354V19.4375H2.55479V11.875Z" fill="white"/>
</svg>
