<svg id="Capa_1" data-name="Capa 1" xmlns="http://www.w3.org/2000/svg" viewBox="0 0 120 120"><defs><style>.cls-1{fill:#7468e2;}.cls-2{fill:#fff;}</style></defs><title>Mesa de trabajo 1 copia 46</title><rect class="cls-1" x="5" y="5" width="110" height="110" rx="18.86"/><path class="cls-2" d="M87.41,60.35A27.41,27.41,0,1,1,60,33,27.41,27.41,0,0,1,87.41,60.35ZM70,68.06a13,13,0,0,1-19.93,0,1.77,1.77,0,0,0-2.72,2.26,16.51,16.51,0,0,0,25.37,0A1.77,1.77,0,0,0,70,68.06Zm-22.34-13a3.54,3.54,0,1,0,3.54-3.53A3.53,3.53,0,0,0,47.63,55.05Zm17.68,0a3.54,3.54,0,1,0,3.53-3.53A3.53,3.53,0,0,0,65.31,55.05Z"/></svg>