<svg id="Capa_1" data-name="Capa 1" xmlns="http://www.w3.org/2000/svg" viewBox="0 0 120 120"><defs><style>.cls-1{fill:#7468e5;}</style></defs><title>Mesa de trabajo 1 copia 61</title><path class="cls-1" d="M107.24,52.43,63.65,65.82a12.5,12.5,0,0,1-7.31,0L25.79,56.43a7.37,7.37,0,0,0-3.24,5.74,4.81,4.81,0,0,1,.28,8.21l4,18a2.5,2.5,0,0,1-2.44,3H15.62a2.5,2.5,0,0,1-2.44-3l4-18a4.83,4.83,0,0,1,.39-8.29,12.37,12.37,0,0,1,2.8-7.33l-7.6-2.33a3.68,3.68,0,0,1,0-7.13L56.35,31.91a12.47,12.47,0,0,1,7.31,0L107.24,45.3A3.68,3.68,0,0,1,107.24,52.43ZM87.79,63.64,90,81.37c0,5.52-13.43,10-30,10s-30-4.48-30-10l2.21-17.73,22.67,7a17.48,17.48,0,0,0,10.24,0Z"/></svg>