<svg id="Capa_1" data-name="Capa 1" xmlns="http://www.w3.org/2000/svg" viewBox="0 0 120 120"><defs><style>.cls-1{fill:#fff;}.cls-2{fill:black;}</style></defs><title>Mesa de trabajo 1 copia 68</title><rect class="cls-1" x="5" y="5" width="110" height="110" rx="14"/><path class="cls-2" d="M35.86,43.3a6.41,6.41,0,0,1,6.41-6.41h16V49.72a3.21,3.21,0,0,0,3.21,3.21H74.36v14l-9.5,9.49a6.41,6.41,0,0,0-1.68,3l-1.52,6a4.86,4.86,0,0,0,.14,2.78H42.27a6.41,6.41,0,0,1-6.41-6.41Zm25.66,6.42V36.89L74.36,49.72Zm5.61,28.89,13-12.87,7.12,7.11-13,13a3.25,3.25,0,0,1-1.5.84l-6,1.51a1.65,1.65,0,0,1-1.53-.42,1.7,1.7,0,0,1-.42-1.61l1.51-5.95A4,4,0,0,1,67.13,78.61ZM92.42,62a4,4,0,0,1,0,5.68l-3,3-7.11-7.12,3-2.95a4,4,0,0,1,5.67,0Z"/></svg>
