<svg id="Capa_1" data-name="Capa 1" xmlns="http://www.w3.org/2000/svg" viewBox="0 0 120 120"><defs><style>.cls-1{fill:#fff;}</style></defs><title>Mesa de trabajo 1 copia 62</title><path class="cls-1" d="M60,94a7.48,7.48,0,0,1-7.5,7.41h-35A7.48,7.48,0,0,1,10,94,17.49,17.49,0,0,1,27.5,76.37a3.42,3.42,0,0,1,1.1.17A20.6,20.6,0,0,0,35,77.62a20.6,20.6,0,0,0,6.4-1.08,3.42,3.42,0,0,1,1.1-.17A17.49,17.49,0,0,1,60,94ZM20,56.37a15,15,0,1,1,15,15A15,15,0,0,1,20,56.37Zm90-27.25v49.5a7.64,7.64,0,0,1-7.5,7.75H64.29a19.93,19.93,0,0,0-6.2-10H70v-10H90v10h10v-45H45v7.78a19.78,19.78,0,0,0-10-2.78V29.12a7.63,7.63,0,0,1,7.5-7.75h60A7.63,7.63,0,0,1,110,29.12Z"/></svg>