<?xml version="1.0" encoding="utf-8"?>
<!-- Generator: Adobe Illustrator 23.1.1, SVG Export Plug-In . SVG Version: 6.00 Build 0)  -->
<svg version="1.1" id="Capa_1" xmlns="http://www.w3.org/2000/svg" xmlns:xlink="http://www.w3.org/1999/xlink" x="0px" y="0px"
	 viewBox="0 0 120 120" style="enable-background:new 0 0 120 120;" xml:space="preserve">
<style type="text/css">
	.st0{enable-background:new    ;}
	.st1{fill:#7468E5;}
</style>
<title>CiviConecta - iconos</title>
<g class="st0">
	<path class="st1" d="M100,31.9c0,38.5-31.2,69.5-69.5,69.4c-3.3,0-6.2-2.3-7-5.5l-3.4-14.7c-0.8-3.4,1-6.8,4.2-8.2l15.9-6.8
		c2.9-1.2,6.3-0.4,8.3,2l5.1,6.2C61.8,70,68.6,63.2,73.1,55l-6.2-5.1c-2.5-2-3.3-5.4-2-8.3l6.8-15.9c1.4-3.2,4.8-4.9,8.2-4.2
		l14.7,3.4C97.7,25.7,100,28.6,100,31.9z M92.5,32.2l-14.2-3.3l-6.6,15.3L82.4,53C75.1,68.4,67,76.5,51.6,83.8l-8.7-10.6l-15.3,6.6
		l3.3,14.2C64.8,93.7,92.3,66.2,92.5,32.2z"/>
</g>
</svg>
