<svg id="Capa_1" data-name="Capa 1" xmlns="http://www.w3.org/2000/svg" viewBox="0 0 120 120"><defs><style>.cls-1{fill:#e95f7b;}.cls-2{fill:#fff;}</style></defs><title>Mesa de trabajo 1 copia 66</title><rect class="cls-1" x="5" y="5" width="110" height="110" rx="14"/><path class="cls-2" d="M74.13,60.32a2,2,0,0,1-1,1.59L60.72,68.13,54.5,80.59a1.77,1.77,0,0,1-3.17,0L45.12,68.13,32.68,61.9a1.76,1.76,0,0,1,0-3.16l12.44-6.23,6.21-12.46a1.84,1.84,0,0,1,3.17,0l6.22,12.46,12.43,6.23a1.94,1.94,0,0,1,1,1.58ZM88.27,78a1,1,0,0,1-.49.79L81.2,81.57l-2.74,6.59a.89.89,0,0,1-1.59,0l-2.74-6.59-6.58-2.74a1,1,0,0,1-.49-.79,1,1,0,0,1,.49-.79l6.58-2.75,2.74-6.58a.89.89,0,0,1,1.59,0L81.2,74.5l6.58,2.75A1,1,0,0,1,88.27,78ZM67.06,42.68a1,1,0,0,1,.49-.79l6.58-2.74,2.74-6.59a.89.89,0,0,1,1.59,0l2.74,6.59,6.58,2.74a1,1,0,0,1,.49.79,1,1,0,0,1-.49.79L81.2,46.22,78.46,52.8a.89.89,0,0,1-1.59,0l-2.74-6.58-6.58-2.75A1,1,0,0,1,67.06,42.68Z"/></svg>