<svg xmlns="http://www.w3.org/2000/svg" viewBox="0 0 70 80"><defs><style>.cls-1{fill:#93c876;}</style></defs><title>44 - Unidad 2 -Item</title><g id="Capa_2" data-name="Capa 2"><g id="Capa_1-2" data-name="Capa 1"><path class="cls-1" d="M67.5,58.19V70.91A4.92,4.92,0,0,1,70,75.14,5,5,0,0,1,65,80H15A15,15,0,0,1,0,65V15A15,15,0,0,1,15,0H62.5A7.5,7.5,0,0,1,70,7.5v45A7.93,7.93,0,0,1,67.5,58.19ZM60,60H15a5,5,0,0,0,0,10H60ZM20,22.5A2.48,2.48,0,0,0,22.36,25H52.5A2.5,2.5,0,0,0,55,22.5,2.53,2.53,0,0,0,52.36,20h-30A2.48,2.48,0,0,0,20,22.5Zm0,10A2.48,2.48,0,0,0,22.36,35H52.5A2.5,2.5,0,0,0,55,32.5,2.53,2.53,0,0,0,52.36,30h-30A2.48,2.48,0,0,0,20,32.5Z"/></g></g></svg>