<svg id="Capa_1" data-name="Capa 1" xmlns="http://www.w3.org/2000/svg" viewBox="0 0 120 120"><defs><style>.cls-1{fill:#e95f7b;}.cls-2{fill:#fff;}</style></defs><title>Mesa de trabajo 1 copia 67</title><rect class="cls-1" x="5" y="5" width="110" height="110" rx="14"/><path class="cls-2" d="M84.74,39.14V81.57a7.07,7.07,0,0,1-7.08,7.07H42.31a7.06,7.06,0,0,1-7.07-7.07V39.14a7.07,7.07,0,0,1,7.07-7.07H77.66A7.08,7.08,0,0,1,84.74,39.14Zm-5.31,0a1.76,1.76,0,0,0-1.77-1.76H42.31a1.76,1.76,0,0,0-1.77,1.76V81.57a1.77,1.77,0,0,0,1.77,1.77H77.66a1.77,1.77,0,0,0,1.77-1.77ZM51.15,44.45V48a1.77,1.77,0,0,1-1.77,1.77H45.84A1.76,1.76,0,0,1,44.08,48V44.45a1.76,1.76,0,0,1,1.76-1.77h3.54A1.77,1.77,0,0,1,51.15,44.45Zm0,14.14v3.53a1.77,1.77,0,0,1-1.77,1.77H45.84a1.76,1.76,0,0,1-1.76-1.77V58.59a1.77,1.77,0,0,1,1.76-1.77h3.54A1.78,1.78,0,0,1,51.15,58.59Zm0,14.14v3.54A1.77,1.77,0,0,1,49.38,78H45.84a1.77,1.77,0,0,1-1.76-1.77V72.73A1.77,1.77,0,0,1,45.84,71h3.54A1.78,1.78,0,0,1,51.15,72.73ZM75.9,46.21a2.66,2.66,0,0,1-2.66,2.66H57.33a2.66,2.66,0,0,1,0-5.31H73.24A2.66,2.66,0,0,1,75.9,46.21Zm0,14.15A2.66,2.66,0,0,1,73.24,63H57.33a2.65,2.65,0,0,1,0-5.3H73.24A2.65,2.65,0,0,1,75.9,60.36Zm0,14.14a2.66,2.66,0,0,1-2.66,2.65H57.33a2.65,2.65,0,1,1,0-5.3H73.24A2.66,2.66,0,0,1,75.9,74.5Z"/></svg>