<svg id="Capa_1" data-name="Capa 1" xmlns="http://www.w3.org/2000/svg" viewBox="0 0 120 120"><defs><style>.cls-1{fill:#93c876;}.cls-2{fill:#fff;}</style></defs><title>Mesa de trabajo 1 copia 73</title><rect class="cls-1" x="5" y="5" width="110" height="110" rx="14"/><path class="cls-2" d="M93.4,54,62.58,63.51a8.82,8.82,0,0,1-5.17,0L35.8,56.87a5.21,5.21,0,0,0-2.28,4.06,3.4,3.4,0,0,1,.2,5.8l2.82,12.7a1.77,1.77,0,0,1-1.73,2.15h-6.2a1.76,1.76,0,0,1-1.72-2.15l2.82-12.7A3.4,3.4,0,0,1,30,60.88a8.77,8.77,0,0,1,2-5.19L26.59,54a2.6,2.6,0,0,1,0-5l30.82-9.46a8.76,8.76,0,0,1,5.17,0L93.4,49A2.6,2.6,0,0,1,93.4,54ZM79.64,62l1.57,12.54c0,3.9-9.5,7.07-21.21,7.07s-21.22-3.17-21.22-7.07L40.35,62l16,4.92a12.31,12.31,0,0,0,7.25,0Z"/></svg>