<svg xmlns="http://www.w3.org/2000/svg" viewBox="0 0 77.5 77.5"><defs><style>.cls-1{fill:#e95f7b;}</style></defs><title>Recurso 4</title><g id="Capa_2" data-name="Capa 2"><g id="Capa_1-2" data-name="Capa 1"><path class="cls-1" d="M77.5,38.75A38.75,38.75,0,1,1,38.75,0,38.74,38.74,0,0,1,77.5,38.75ZM5,38.75A33.75,33.75,0,1,0,38.75,5,33.74,33.74,0,0,0,5,38.75Zm38.12,17.5a4.37,4.37,0,1,1-4.37-4.37A4.36,4.36,0,0,1,43.12,56.25Zm-2.58-37.5a1.88,1.88,0,0,1,1.88,1.95L41.33,47a1.88,1.88,0,0,1-1.88,1.8h-1.4A1.88,1.88,0,0,1,36.17,47L35.08,20.7A1.88,1.88,0,0,1,37,18.75Z"/></g></g></svg>