<?xml version="1.0" encoding="utf-8"?>
<!-- Generator: Adobe Illustrator 23.1.1, SVG Export Plug-In . SVG Version: 6.00 Build 0)  -->
<svg version="1.1" id="Capa_1" xmlns="http://www.w3.org/2000/svg" xmlns:xlink="http://www.w3.org/1999/xlink" x="0px" y="0px"
	 viewBox="0 0 120 120" style="enable-background:new 0 0 120 120;" xml:space="preserve">
<style type="text/css">
	.st0{enable-background:new    ;}
	.st1{fill:#7468E5;}
	.st2{fill:none;stroke:#7468E5;stroke-width:2;stroke-miterlimit:10;}
</style>
<title>CiviConecta - iconos</title>
<g class="st0">
	<path class="st1" d="M78.5,59.9c0,10.1-8.4,18.3-18.5,18.3h0c-3.1,0-6.1-0.8-8.8-2.2l-9.7,2.6l2.6-9.5c-1.6-2.8-2.4-5.9-2.4-9.2
		c0-10.1,8.2-18.3,18.3-18.3c4.9,0,9.5,1.9,13,5.4C76.4,50.4,78.5,55,78.5,59.9z M75.4,59.9c0-4.1-1.8-7.9-4.6-10.8
		c-2.9-2.9-6.7-4.5-10.8-4.5c-8.4,0-15.3,6.8-15.3,15.2c0,2.9,0.8,5.7,2.3,8.1l0.4,0.6l-1.5,5.6l5.8-1.5l0.6,0.3
		c2.3,1.4,5,2.1,7.8,2.1C68.4,75.1,75.4,68.3,75.4,59.9z M69.2,64.3c0.1,0.2,0.1,1.1-0.3,2.2c-0.4,1.1-2.2,2-3.1,2.2
		c-1.5,0.2-2.6,0.1-5.5-1.1c-4.6-2-7.6-6.6-7.8-6.9c-0.2-0.3-1.9-2.5-1.9-4.7c0-2.3,1.2-3.4,1.6-3.8c0.4-0.5,0.9-0.6,1.2-0.6
		c0.3,0,0.6,0,0.9,0c0.3,0,0.7-0.1,1,0.8c0.4,0.9,1.3,3.2,1.4,3.4s0.2,0.5,0,0.8c-0.9,1.8-1.8,1.7-1.3,2.5c1.8,3.1,3.5,4.1,6.2,5.5
		c0.5,0.2,0.7,0.2,1-0.1c0.3-0.3,1.1-1.3,1.5-1.8c0.3-0.5,0.6-0.4,1-0.2c0.4,0.1,2.7,1.3,3.1,1.5C68.8,63.9,69.1,64.1,69.2,64.3z"/>
</g>
<circle class="st2" cx="60" cy="60" r="45"/>
</svg>
