<svg width="50" height="49" viewBox="0 0 50 49" fill="none" xmlns="http://www.w3.org/2000/svg">
<path d="M49.1414 17.1927L26.225 0.401189C25.869 0.140445 25.4401 0 25 0C24.5599 0 24.131 0.140445 23.775 0.401189L0.85856 17.1927C0.411564 17.52 0.111936 18.0128 0.0255921 18.5627C-0.0171611 18.835 -0.00626511 19.1131 0.057658 19.3812C0.121581 19.6492 0.23728 19.9019 0.398147 20.1249C0.559015 20.3479 0.761902 20.5368 0.995224 20.6808C1.22855 20.8248 1.48773 20.9211 1.75799 20.9641C2.30379 21.0511 2.86154 20.9161 3.30854 20.5888L6.25018 18.4332V44.078C6.25347 45.1903 6.69351 46.2561 7.4742 47.0427C8.25488 47.8292 9.31276 48.2725 10.4168 48.2759H18.7501V29.3854C18.7501 28.8288 18.9695 28.2949 19.3602 27.9013C19.7509 27.5076 20.2808 27.2865 20.8334 27.2865H29.1666C29.7192 27.2865 30.2491 27.5076 30.6398 27.9013C31.0304 28.2949 31.2499 28.8288 31.2499 29.3854V48.2759H39.5832C40.6872 48.2725 41.7451 47.8292 42.5258 47.0427C43.3065 46.2561 43.7465 45.1903 43.7498 44.078V18.4332L46.6915 20.5888C46.9128 20.7508 47.1636 20.8674 47.4297 20.9318C47.6957 20.9962 47.9718 21.0072 48.242 20.9641C48.5123 20.9211 48.7715 20.8248 49.0048 20.6808C49.2381 20.5368 49.441 20.3479 49.6018 20.1249C49.7627 19.9019 49.8784 19.6492 49.9423 19.3812C50.0063 19.1131 50.0172 18.835 49.9744 18.5627C49.9317 18.2904 49.8361 18.0293 49.6932 17.7942C49.5502 17.5592 49.3628 17.3548 49.1414 17.1927Z" fill="white"/>
</svg>
