<svg width="17" height="17" viewBox="0 0 17 17" fill="none" xmlns="http://www.w3.org/2000/svg">
<path d="M8.50004 0C13.1945 0 17 3.80559 17 8.50003C17 13.1945 13.1945 17 8.50004 17C3.80558 17 0 13.1945 0 8.50003C0 3.80559 3.80558 0 8.50004 0ZM8.50004 1.2748C4.50964 1.2748 1.2748 4.50964 1.2748 8.50003C1.2748 12.4904 4.50964 15.7252 8.50004 15.7252C12.4903 15.7252 15.7252 12.4904 15.7252 8.50003C15.7252 4.50964 12.4903 1.2748 8.50004 1.2748ZM8.49689 7.22438C8.81959 7.22421 9.08645 7.46379 9.12886 7.77484L9.13472 7.86135L9.13778 12.537C9.13803 12.889 8.85282 13.1746 8.5008 13.1748C8.17811 13.175 7.91125 12.9354 7.86884 12.6244L7.86298 12.5378L7.85992 7.8622C7.85966 7.51019 8.14488 7.22463 8.49689 7.22438ZM8.50038 4.25174C8.96916 4.25174 9.34914 4.63173 9.34914 5.10047C9.34914 5.56921 8.96916 5.94921 8.50038 5.94921C8.03168 5.94921 7.65161 5.56921 7.65161 5.10047C7.65161 4.63173 8.03168 4.25174 8.50038 4.25174Z" fill="#212121"/>
</svg>
