<svg width="32" height="26" viewBox="0 0 32 26" fill="none" xmlns="http://www.w3.org/2000/svg">
<path d="M0 11.2V24.8C0 25.242 0.358 25.6 0.8 25.6H4.8V9.6H1.6C0.7165 9.6 0 10.3165 0 11.2ZM18 8.8H16.8V6.8C16.8 6.579 16.621 6.4 16.4 6.4H15.6C15.379 6.4 15.2 6.579 15.2 6.8V10C15.2 10.221 15.379 10.4 15.6 10.4H18C18.221 10.4 18.4 10.221 18.4 10V9.2C18.4 8.979 18.221 8.8 18 8.8ZM24.8875 5.602L16.8875 0.268504C16.6246 0.0934201 16.3158 0 16 0C15.6842 0 15.3754 0.0934201 15.1125 0.268504L7.1125 5.602C6.89338 5.74809 6.7137 5.94601 6.58941 6.17819C6.46512 6.41037 6.40006 6.66965 6.4 6.933V25.6H12.8V18.4C12.8 17.958 13.158 17.6 13.6 17.6H18.4C18.842 17.6 19.2 17.958 19.2 18.4V25.6H25.6V6.9335C25.6 6.3985 25.3325 5.8985 24.8875 5.602ZM16 12.8C13.791 12.8 12 11.009 12 8.8C12 6.591 13.791 4.8 16 4.8C18.209 4.8 20 6.591 20 8.8C20 11.009 18.209 12.8 16 12.8ZM30.4 9.6H27.2V25.6H31.2C31.642 25.6 32 25.242 32 24.8V11.2C32 10.3165 31.2835 9.6 30.4 9.6Z" fill="white"/>
</svg>
