<svg width="50" height="40" viewBox="0 0 50 40" fill="none" xmlns="http://www.w3.org/2000/svg">
<path d="M16.2501 27.4999C16.0634 27.4999 15.8766 27.5273 15.6985 27.5851C14.686 27.914 13.6212 28.1249 12.5001 28.1249C11.379 28.1249 10.3142 27.914 9.30089 27.5851C9.12276 27.5273 8.93682 27.4999 8.7501 27.4999C3.90168 27.4999 -0.025655 31.4437 0.000126209 36.2983C0.0110637 38.3499 1.69778 39.9999 3.75012 39.9999H21.2501C23.3024 39.9999 24.9891 38.3499 25.0001 36.2983C25.0258 31.4437 21.0985 27.4999 16.2501 27.4999ZM12.5001 24.9999C16.6423 24.9999 20.0001 21.6421 20.0001 17.5C20.0001 13.3578 16.6423 9.99998 12.5001 9.99998C8.35792 9.99998 5.00011 13.3578 5.00011 17.5C5.00011 21.6421 8.35792 24.9999 12.5001 24.9999ZM46.25 0H16.2501C14.1821 0 12.5001 1.73828 12.5001 3.87421V7.49998C14.3298 7.49998 16.0235 8.02967 17.5001 8.8906V4.99999H45V27.4999H40V22.4999H30.0001V27.4999H24.0438C25.536 28.8038 26.6313 30.5257 27.1446 32.4999H46.25C48.318 32.4999 50 30.7616 50 28.6257V3.87421C50 1.73828 48.318 0 46.25 0Z" fill="white"/>
</svg>
